<?xml version="1.0" encoding="utf-8"?>
<!-- Generator: Adobe Illustrator 16.0.0, SVG Export Plug-In . SVG Version: 6.00 Build 0)  -->
<!DOCTYPE svg PUBLIC "-//W3C//DTD SVG 1.0//EN" "http://www.w3.org/TR/2001/REC-SVG-20010904/DTD/svg10.dtd">
<svg version="1.0" id="Layer_1" xmlns="http://www.w3.org/2000/svg" xmlns:xlink="http://www.w3.org/1999/xlink" x="0px" y="0px"
	 width="16.789px" height="20.989px" viewBox="0 0 16.789 20.989" enable-background="new 0 0 16.789 20.989" xml:space="preserve">
<path style="fill:#fff;" d="M12,20.594c0.948-0.265,1.814-0.703,2.603-1.323c0.669-0.52,1.198-1.17,1.593-1.959c0.395-0.789,0.592-1.709,0.592-2.752
	c0-1.425-0.39-2.56-1.17-3.402c-0.779-0.841-1.818-1.395-3.112-1.669v-0.11c0.899-0.38,1.607-0.967,2.117-1.766
	c0.515-0.799,0.77-1.708,0.77-2.733c0-0.886-0.188-1.666-0.559-2.344c-0.37-0.673-0.934-1.217-1.684-1.621
	c-0.693-0.376-1.438-0.621-2.233-0.736C10.124,0.058,8.956,0,7.415,0H0v20.989h8.401C9.859,20.989,11.057,20.858,12,20.594z
	 M5.245,3.849h0.366c0.938,0,1.646,0.005,2.122,0.02c0.477,0.015,0.885,0.096,1.231,0.25c0.371,0.159,0.64,0.419,0.813,0.775
	c0.173,0.356,0.26,0.703,0.26,1.044c0,0.457-0.082,0.862-0.241,1.213c-0.158,0.346-0.452,0.621-0.87,0.818
	C8.542,8.146,8.166,8.243,7.805,8.262c-0.361,0.02-0.996,0.029-1.896,0.029H5.245V3.849z M5.529,17.139H5.245v-5.255h0.972
	c0.938,0,1.689,0.005,2.247,0.019c0.558,0.015,1,0.082,1.318,0.208c0.524,0.188,0.919,0.462,1.184,0.832
	c0.264,0.366,0.394,0.871,0.394,1.521c0,0.505-0.111,0.958-0.332,1.356c-0.222,0.4-0.568,0.703-1.049,0.91
	c-0.543,0.235-1.083,0.361-1.606,0.38C7.848,17.129,6.9,17.139,5.529,17.139z"/>
</svg>
