<?xml version="1.0" encoding="utf-8"?>
<!-- Generator: Adobe Illustrator 16.0.0, SVG Export Plug-In . SVG Version: 6.00 Build 0)  -->
<!DOCTYPE svg PUBLIC "-//W3C//DTD SVG 1.0//EN" "http://www.w3.org/TR/2001/REC-SVG-20010904/DTD/svg10.dtd">
<svg version="1.0" id="_x2014_лой_1" xmlns="http://www.w3.org/2000/svg" xmlns:xlink="http://www.w3.org/1999/xlink" x="0px"
	 y="0px" width="87.979px" height="87.979px" viewBox="0 0 87.979 48.275" enable-background="new 0 0 87.979 48.275"
	 xml:space="preserve">
<path style="fill:#fff;" fill-rule="evenodd" clip-rule="evenodd" d="M44.011,42.376c-5.033,0-9.593-2.043-12.894-5.342l-0.003-0.004
	c-3.299-3.3-5.342-7.86-5.342-12.893c0-5.037,2.042-9.599,5.342-12.897l0.062-0.057c3.295-3.267,7.833-5.285,12.835-5.285
	c5.032,0,9.592,2.042,12.893,5.342l0.005,0.004c3.298,3.3,5.341,7.861,5.341,12.894c0,5.032-2.043,9.593-5.341,12.893l-0.005,0.004
	C53.604,40.333,49.043,42.376,44.011,42.376L44.011,42.376z M77.845,32.706L77.845,32.706l6.075-3.576l-8.4-2.251l-2.054,7.445
	h-0.001c-0.144,0.523-0.649,0.884-1.209,0.829c-2.246-0.224-4.516-0.425-6.806-0.598c-0.053,0.601-0.17,1.171-0.349,1.707
	l15.782,4.209l-3.504-6.192c-0.309-0.547-0.118-1.243,0.43-1.553L77.845,32.706L77.845,32.706z M76.126,24.678L76.126,24.678
	l1.229-4.457c0.167-0.606-0.188-1.236-0.795-1.403c-0.058-0.016-0.117-0.027-0.174-0.034v-0.001
	c-2.89-0.332-5.817-0.622-8.777-0.866c-0.448-1.046-1.17-2.005-2.152-2.839c0.125-1.792-0.271-3.365-1.127-4.636
	c-0.858-1.272-2.164-2.221-3.858-2.767c-0.546-1.694-1.494-3-2.766-3.858c-1.271-0.856-2.845-1.252-4.636-1.127
	c-1.168-1.377-2.581-2.243-4.143-2.558c-1.552-0.313-3.221-0.075-4.916,0.744c-1.693-0.819-3.364-1.058-4.917-0.744
	c-1.559,0.315-2.973,1.178-4.142,2.558c-1.792-0.125-3.366,0.271-4.637,1.127c-1.272,0.858-2.224,2.164-2.767,3.86
	c-1.694,0.546-2.999,1.494-3.857,2.765c-0.856,1.271-1.251,2.844-1.126,4.636c-0.982,0.833-1.704,1.789-2.152,2.835
	c-2.975,0.245-5.915,0.537-8.819,0.87c-0.625,0.071-1.076,0.637-1.004,1.263c0.009,0.081,0.025,0.16,0.051,0.234l1.212,4.397
	L0.844,27.627l0.001,0.003c-0.28,0.074-0.532,0.256-0.689,0.524c-0.317,0.542-0.136,1.24,0.406,1.558l7.503,4.418l-4.261,7.526
	c-0.166,0.262-0.226,0.588-0.141,0.909c0.161,0.608,0.79,0.97,1.397,0.809l18.972-5.083c0.849,1.042,2.032,1.827,3.515,2.306
	c0.543,1.694,1.493,3.002,2.766,3.86l0.001-0.003l0.003,0.003c1.272,0.854,2.844,1.25,4.633,1.127
	c1.169,1.38,2.583,2.243,4.142,2.558c1.553,0.314,3.224,0.075,4.917-0.743c1.693,0.818,3.363,1.058,4.916,0.743
	c1.563-0.314,2.974-1.18,4.144-2.558c1.792,0.125,3.366-0.271,4.637-1.127c1.273-0.858,2.222-2.166,2.765-3.86
	c1.471-0.473,2.648-1.251,3.495-2.277l18.954,5.055c0.609,0.16,1.234-0.204,1.394-0.812c0.079-0.3,0.029-0.603-0.112-0.853
	l-0.01-0.018l-4.281-7.562l7.503-4.418c0.542-0.317,0.723-1.016,0.406-1.558c-0.158-0.269-0.409-0.45-0.689-0.524l0.001-0.003
	L76.126,24.678L76.126,24.678z M12.459,26.878L12.459,26.878l2.054,7.445c0.153,0.556,0.694,0.901,1.25,0.826
	c2.246-0.225,4.516-0.427,6.808-0.599c0.05,0.59,0.164,1.15,0.337,1.678L7.099,40.465l3.5-6.187c0.31-0.547,0.119-1.243-0.429-1.553
	l-0.036-0.021l-6.075-3.576L12.459,26.878L12.459,26.878z M71.523,32.792L71.523,32.792c-1.717-0.165-3.447-0.317-5.184-0.453
	c0.872-0.979,1.435-2.088,1.676-3.285c0.314-1.554,0.074-3.224-0.744-4.915c0.639-1.325,0.926-2.635,0.871-3.886
	c2.238,0.191,4.459,0.409,6.661,0.651L71.523,32.792L71.523,32.792z M19.88,20.249L19.88,20.249c-0.055,1.252,0.23,2.565,0.87,3.89
	c-0.818,1.691-1.057,3.361-0.745,4.915c0.242,1.197,0.806,2.304,1.675,3.281c-1.75,0.138-3.492,0.289-5.225,0.457l-3.28-11.888
	C15.393,20.66,17.628,20.441,19.88,20.249L19.88,20.249z M50.718,25.483L50.718,25.483l-5.165-13.039l-0.004,0.001
	c-0.164-0.413-0.489-0.761-0.935-0.94c-0.858-0.344-1.835,0.074-2.18,0.932L37.21,25.414c-0.039,0.079-0.071,0.16-0.098,0.245
	l-2.33,5.785c-0.345,0.858,0.074,1.836,0.932,2.181c0.858,0.344,1.835-0.074,2.18-0.933l1.954-4.852h8.188l1.919,4.844
	c0.34,0.862,1.318,1.286,2.18,0.945c0.862-0.34,1.285-1.317,0.946-2.18L50.76,25.59L50.718,25.483L50.718,25.483z M41.202,24.478
	L41.202,24.478h5.503l-2.729-6.891L41.202,24.478L41.202,24.478z M39.541,45.91L39.541,45.91c1.188,0.239,2.524-0.014,3.916-0.789
	c0.333-0.185,0.751-0.199,1.108,0c1.391,0.775,2.726,1.028,3.916,0.789c1.182-0.238,2.27-0.983,3.169-2.201
	c0.241-0.322,0.643-0.507,1.068-0.451c1.488,0.202,2.753-0.047,3.711-0.693c0.959-0.647,1.656-1.721,2.012-3.161
	c0.098-0.396,0.408-0.729,0.833-0.833c1.44-0.356,2.515-1.056,3.162-2.015l0.003,0.001c0.64-0.953,0.89-2.208,0.694-3.688
	c-0.065-0.407,0.096-0.837,0.451-1.098c1.215-0.896,1.958-1.98,2.197-3.164c0.239-1.189-0.014-2.524-0.79-3.915
	c-0.184-0.332-0.199-0.751,0-1.108c0.776-1.392,1.028-2.726,0.79-3.915c-0.238-1.182-0.985-2.269-2.202-3.168
	c-0.321-0.241-0.506-0.643-0.45-1.068c0.202-1.489-0.047-2.753-0.694-3.712c-0.647-0.96-1.72-1.658-3.161-2.015
	c-0.396-0.098-0.729-0.409-0.833-0.834c-0.356-1.44-1.055-2.513-2.015-3.16c-0.959-0.647-2.223-0.896-3.712-0.694
	c-0.398,0.054-0.812-0.105-1.068-0.451c-0.899-1.217-1.986-1.963-3.168-2.202c-1.189-0.239-2.523,0.014-3.915,0.79
	c-0.333,0.184-0.752,0.199-1.108,0c-1.392-0.776-2.728-1.029-3.916-0.79c-1.182,0.238-2.268,0.983-3.164,2.196
	c-0.238,0.326-0.644,0.514-1.072,0.456c-1.488-0.202-2.754,0.048-3.713,0.694c-0.96,0.648-1.656,1.72-2.013,3.16
	c-0.098,0.397-0.409,0.729-0.834,0.834c-1.44,0.356-2.513,1.055-3.16,2.015c-0.647,0.959-0.896,2.223-0.694,3.712
	c0.054,0.398-0.104,0.812-0.451,1.068c-1.218,0.9-1.963,1.986-2.203,3.167c-0.238,1.189,0.015,2.524,0.791,3.916
	c0.185,0.333,0.199,0.752,0,1.108c-0.776,1.391-1.029,2.726-0.791,3.915c0.24,1.182,0.984,2.269,2.203,3.168
	c0.322,0.241,0.507,0.643,0.451,1.068c-0.202,1.488,0.047,2.753,0.694,3.712c0.646,0.96,1.72,1.658,3.16,2.015
	c0.397,0.098,0.729,0.408,0.834,0.833c0.356,1.44,1.053,2.514,2.012,3.161l-0.001,0.002c0.954,0.641,2.209,0.893,3.69,0.695
	c0.408-0.064,0.836,0.098,1.097,0.452C37.273,44.926,38.359,45.671,39.541,45.91L39.541,45.91z M32.729,35.419L32.729,35.419
	c2.885,2.884,6.876,4.671,11.282,4.671c4.405,0,8.397-1.787,11.282-4.671c2.883-2.885,4.67-6.876,4.67-11.281
	c0-4.406-1.788-8.397-4.67-11.282c-2.885-2.884-6.877-4.671-11.282-4.671c-4.382,0-8.354,1.767-11.235,4.623l-0.045,0.049
	c-2.886,2.887-4.672,6.875-4.672,11.281C28.058,28.543,29.846,32.535,32.729,35.419z"/>
</svg>
