<?xml version="1.0" encoding="utf-8"?>
<!-- Generator: Adobe Illustrator 16.0.0, SVG Export Plug-In . SVG Version: 6.00 Build 0)  -->
<!DOCTYPE svg PUBLIC "-//W3C//DTD SVG 1.0//EN" "http://www.w3.org/TR/2001/REC-SVG-20010904/DTD/svg10.dtd">
<svg version="1.0" id="Layer_1" xmlns="http://www.w3.org/2000/svg" xmlns:xlink="http://www.w3.org/1999/xlink" x="0px" y="0px"
	 width="87.974px" height="87.974px" viewBox="26.483 19.847 75.692 87.974" enable-background="new 26.483 19.847 75.692 87.974"
	 xml:space="preserve">
<g>
	<g>
		<g>
			<path style="fill:#fff;" d="M96.833,26.301c-2.649-1.353-5.432-2.596-8.294-3.352c-13.38-3.532-26.971-4.001-40.562-1.647
				c-5.186,0.898-10.362,2.448-15.221,4.477c-5.946,2.481-6.965,5.106-5.909,11.383c1.711,10.163,3.707,20.451,5.013,30.666
				c0.661,5.175,3.221,8.637,7.658,10.087c7.236,3.31,15.86,4.924,24.811,4.905c8.761-0.02,16.606-1.259,24.947-4.708
				c4.136-1.709,6.705-4.794,7.359-9.753c1.37-10.375,3.079-21.229,5.228-31.472C102.963,31.635,101.119,28.489,96.833,26.301z
				 M64.114,73.696c-6.302-0.08-11.486-5.266-11.443-11.445c0.045-6.433,5.452-11.558,12.005-11.379
				c6.244,0.17,11.355,5.511,11.188,11.692C75.697,68.787,70.43,73.776,64.114,73.696z M40.837,31.43
				c7.634-6.151,38.755-6.128,46.831,0.036C80.906,38.051,47.659,38.025,40.837,31.43z"/>
			<path style="fill:#fff;" d="M64.449,55.951c-3.87-0.147-5.977,2.326-6.514,5.994c0.162,4.098,2.377,6.275,6.146,6.666
				c3.401,0.352,6.414-2.662,6.401-6.155C70.471,58.488,68.255,56.095,64.449,55.951z"/>
		</g>
		<path style="fill:#fff;" d="M91.597,82.253c-0.234,0-0.458,0.048-0.666,0.125c-0.142,0.073-0.283,0.146-0.428,0.218
			c-6.495,3.215-15.662,5.224-25.834,5.224c-0.008,0-0.018,0-0.025,0s-0.017,0-0.024,0c-10.172,0-19.339-2.009-25.834-5.224
			c-0.146-0.071-0.286-0.145-0.429-0.218c-0.208-0.077-0.431-0.125-0.666-0.125c-1.062,0-1.926,0.862-1.926,1.926
			c0,0.047,0.01,0.091,0.015,0.136c0.021,0.121,0.038,0.242,0.06,0.361c0.598,3.567,1.157,7.135,1.612,10.692
			c0.549,4.298,2.674,7.174,6.36,8.378c6.011,2.75,13.174,4.091,20.607,4.075c0.076,0,0.148-0.004,0.226-0.004
			s0.149,0.004,0.227,0.004c7.434,0.016,14.598-1.326,20.606-4.075c3.688-1.204,5.812-4.08,6.361-8.378
			c0.455-3.558,1.014-7.125,1.612-10.692c0.021-0.12,0.039-0.241,0.06-0.361c0.003-0.045,0.014-0.089,0.014-0.136
			C93.523,83.115,92.661,82.253,91.597,82.253z"/>
	</g>
</g>
</svg>
