<?xml version="1.0" encoding="utf-8"?>
<!-- Generator: Adobe Illustrator 16.0.0, SVG Export Plug-In . SVG Version: 6.00 Build 0)  -->
<!DOCTYPE svg PUBLIC "-//W3C//DTD SVG 1.0//EN" "http://www.w3.org/TR/2001/REC-SVG-20010904/DTD/svg10.dtd">
<svg version="1.0" id="Layer_1" xmlns="http://www.w3.org/2000/svg" xmlns:xlink="http://www.w3.org/1999/xlink" x="0px" y="0px"
	 width="85.04px" height="85.04px" viewBox="264.521 353.763 85.04 85.04" enable-background="new 264.521 353.763 85.04 85.04"
	 xml:space="preserve">
<g>
	<path style="fill:#fff;" d="M348.984,375.358l-6.646-6.655c-0.534-0.531-1.23-0.824-1.98-0.821c-0.748-0.003-1.45,0.291-1.982,0.818l-31.805,31.816
		l-13.921-13.945c-0.521-0.523-1.237-0.824-1.979-0.822c-0.735,0.002-1.457,0.297-1.98,0.817l-6.656,6.648
		c-1.096,1.093-1.1,2.863-0.003,3.957l22.531,22.578c0.451,0.452,1.036,0.732,1.66,0.801c0.105,0.016,0.213,0.021,0.32,0.021
		c0.007,0,0.015,0,0.021-0.001l0.004,0.002c0.752,0.002,1.466-0.295,1.998-0.823l40.418-40.435
		C350.076,378.224,350.077,376.454,348.984,375.358z"/>
</g>
<g>
	<path style="fill:#fff;" d="M346.484,389.055l-34.232,34.248c-1.479,1.464-3.436,2.271-5.518,2.271l-1.52-0.002l-0.319-0.214
		c-1.395-0.332-2.685-1.052-3.704-2.074l-22.523-22.57c-1.477-1.473-2.29-3.432-2.289-5.516c0-2.086,0.814-4.047,2.29-5.519
		l6.664-6.657c1.447-1.439,3.45-2.269,5.513-2.271c2.056,0,4.066,0.838,5.511,2.29l10.385,10.403l22.062-22.07l-14.692-14.693
		c-3.891-3.889-10.253-3.889-14.144,0l-32.531,32.531c-3.89,3.889-3.89,10.254,0,14.143l32.532,32.531
		c3.89,3.89,10.253,3.89,14.144,0l32.529-32.531c3.891-3.889,3.891-10.253,0-14.143L346.484,389.055z"/>
</g>
</svg>
