<?xml version="1.0" encoding="utf-8"?>
<!-- Generator: Adobe Illustrator 16.0.0, SVG Export Plug-In . SVG Version: 6.00 Build 0)  -->
<!DOCTYPE svg PUBLIC "-//W3C//DTD SVG 1.0//EN" "http://www.w3.org/TR/2001/REC-SVG-20010904/DTD/svg10.dtd">
<svg version="1.0"
	 id="svg2" xmlns:cc="http://creativecommons.org/ns#" xmlns:sodipodi="http://sodipodi.sourceforge.net/DTD/sodipodi-0.dtd" xmlns:dc="http://purl.org/dc/elements/1.1/" xmlns:rdf="http://www.w3.org/1999/02/22-rdf-syntax-ns#" xmlns:inkscape="http://www.inkscape.org/namespaces/inkscape" xmlns:svg="http://www.w3.org/2000/svg" inkscape:version="0.48.0 r9654" inkscape:export-ydpi="90" inkscape:export-filename="/home/spktkpkt/Webprojekte/info/img/github.png" sodipodi:docname="github.svg" inkscape:export-xdpi="90"
	 xmlns="http://www.w3.org/2000/svg" xmlns:xlink="http://www.w3.org/1999/xlink" x="0px" y="0px" width="40px" height="40px"
	 viewBox="11.5 12 40 40" enable-background="new 11.5 12 40 40" xml:space="preserve">
<sodipodi:namedview  id="base" borderopacity="1.0" showgrid="false" fit-margin-top="0" inkscape:cy="33.834403" bordercolor="#666666" inkscape:zoom="1" inkscape:cx="195.89719" pagecolor="#ffffff" fit-margin-left="0" inkscape:pageopacity="0.0" inkscape:window-maximized="1" inkscape:pageshadow="2" inkscape:window-height="749" inkscape:snap-nodes="false" inkscape:window-x="0" fit-margin-bottom="0" inkscape:document-units="px" fit-margin-right="0" inkscape:window-y="0" inkscape:window-width="1280" inkscape:current-layer="layer1" inkscape:snap-bbox="true">
	<inkscape:grid  type="xygrid" id="grid3964" enabled="true" visible="true" empspacing="5" snapvisiblegridlinesonly="true">
		</inkscape:grid>
</sodipodi:namedview>
<g id="layer1" transform="translate(-559.42859,-723.2193)" inkscape:label="Ebene 1" inkscape:groupmode="layer">
	<path style="fill:#fff;" id="path3162" inkscape:connector-curvature="0" fill="#2E3436" d="M590.929,735.219c-11.093,0-20,9.031-20,20.008
		c0,10.977,8.907,19.992,20,19.992c11.091,0,20-9.016,20-19.992C610.929,744.251,602.02,735.219,590.929,735.219z M590.929,738.133
		c9.294,0,16.898,7.58,16.898,17.094c0,7.736-5.031,14.182-11.91,16.326v-5.406c0-1.684-0.619-3.188-1.604-4.198h0.903
		c3.979,0,7.187-3.224,7.187-7.223v-1.912c0-2.067-0.867-3.919-2.244-5.233v-4.293l-4.068,2.366
		c-0.288-0.035-0.575-0.062-0.872-0.062h-7.687c-0.599,0-1.175,0.082-1.73,0.22l-4.349-2.522v5.688
		c-0.693,1.111-1.107,2.424-1.107,3.838v1.912c0,3.999,3.207,7.223,7.187,7.223h0.811c-0.823,0.848-1.38,2.045-1.543,3.399
		c-3.413,1.312-3.987-2.703-8.34-3.306c5.201,4.248,2.603,5.396,8.277,5.688v4.058c-7.282-1.877-12.704-8.527-12.704-16.561
		C574.031,745.713,581.635,738.134,590.929,738.133L590.929,738.133z M591.521,764.847c0.275,0,0.498,2.46,0.498,5.515v1.113
		c0,0.284-0.012,0.538-0.016,0.799c-0.322,0.021-0.639,0.045-0.967,0.047c-0.01-0.275-0.016-0.545-0.016-0.846v-1.113
		C591.021,767.307,591.244,764.847,591.521,764.847L591.521,764.847z M588.933,765.254c0.276,0,0.498,2.46,0.498,5.516v1.096
		c0,0.135,0.002,0.254,0,0.377c-0.334-0.028-0.668-0.061-0.997-0.108c-0.001-0.091,0-0.173,0-0.269v-1.096
		C588.434,767.713,588.657,765.254,588.933,765.254L588.933,765.254z M593.922,765.254c0.276,0,0.498,2.46,0.498,5.516v1.096
		c0,0.028,0,0.053,0,0.079c-0.33,0.07-0.659,0.122-0.997,0.173c-0.001-0.084,0-0.162,0-0.252v-1.096
		C593.423,767.713,593.645,765.254,593.922,765.254z"/>
</g>
</svg>
