<?xml version="1.0" encoding="utf-8"?>
<!-- Generator: Adobe Illustrator 16.0.0, SVG Export Plug-In . SVG Version: 6.00 Build 0)  -->
<!DOCTYPE svg PUBLIC "-//W3C//DTD SVG 1.1//EN" "http://www.w3.org/Graphics/SVG/1.1/DTD/svg11.dtd">
<svg version="1.1" id="Слой_1" xmlns="http://www.w3.org/2000/svg" xmlns:xlink="http://www.w3.org/1999/xlink" x="0px" y="0px"
	 width="283.46px" height="283.46px" viewBox="0 0 283.46 283.46" enable-background="new 0 0 283.46 283.46" xml:space="preserve">
<path fill="#FFFFFF" d="M138.884,220.659h15.858c0,0,4.789-0.529,7.238-3.165c2.251-2.421,2.179-6.967,2.179-6.967
	s-0.311-21.276,9.563-24.412c9.739-3.089,22.24,20.567,35.49,29.662c10.021,6.881,17.635,5.374,17.635,5.374l35.433-0.492
	c0,0,18.534-1.146,9.746-15.718c-0.72-1.191-5.119-10.78-26.346-30.482c-22.219-20.622-19.241-17.284,7.522-52.956
	c16.298-21.723,22.813-34.984,20.777-40.665c-1.94-5.412-13.928-3.982-13.928-3.982l-39.895,0.248c0,0-2.96-0.404-5.152,0.909
	c-2.145,1.283-3.521,4.28-3.521,4.28s-6.317,16.809-14.734,31.106c-17.765,30.164-24.868,31.761-27.773,29.885
	c-6.756-4.366-5.067-17.536-5.067-26.895c0-29.234,4.434-41.423-8.635-44.577c-4.336-1.047-7.53-1.74-18.621-1.852
	c-14.235-0.146-26.282,0.043-33.104,3.385c-4.539,2.224-8.041,7.174-5.907,7.46c2.638,0.352,8.607,1.612,11.773,5.919
	c4.089,5.563,3.945,18.053,3.945,18.053s2.35,34.413-5.486,38.687c-5.377,2.932-12.754-3.055-28.592-30.422
	c-8.114-14.017-14.241-29.515-14.241-29.515s-1.181-2.896-3.289-4.445c-2.556-1.878-6.127-2.473-6.127-2.473l-37.912,0.247
	c0,0-5.689,0.159-7.781,2.634c-1.86,2.203-0.149,6.754-0.149,6.754s29.68,69.438,63.287,104.431
	C103.894,222.765,138.884,220.659,138.884,220.659L138.884,220.659z"/>
</svg>
