<svg xmlns="http://www.w3.org/2000/svg" xmlns:xlink="http://www.w3.org/1999/xlink" version="1.1" id="Layer_1" width="91.864" height="91.841" viewBox="0 0 91.864 91.841" overflow="visible" enable-background="new 0 0 91.864 91.841" xml:space="preserve">
<path style="fill:#006196;" d="M78.431,13.434c-17.915-17.912-47.061-17.912-64.973,0C4.778,22.111,0,33.649,0,45.922c0,12.27,4.778,23.804,13.458,32.483  c17.914,17.915,47.059,17.915,64.97,0C96.343,60.495,96.343,31.35,78.431,13.434z M74.82,74.797  c-15.922,15.923-41.832,15.923-57.755,0C9.35,67.086,5.103,56.831,5.103,45.922c0-10.202,3.716-19.828,10.503-27.341  c0.719-0.345,1.508-0.517,2.366-0.517c0.03,0,0.331,0.629,0.891,1.888c0.566,1.258,1.213,1.888,1.948,1.888  c1.162,0,2.247-1.181,3.25-3.543c1.251-3.013,2.615-5.102,4.099-6.265c1.482-1.167,2.941-1.983,4.374-2.45l1.557-0.278  c0.731-0.187,1.097-0.464,1.097-0.84c0-0.608-0.262-1.178-0.77-1.712c8.866-2.595,18.447-2.124,27.059,1.403l-0.46,2.545h-6.78  l-8.242,7.274l3.847,3.354l1.279-2.05l0.918,2.609l2.566-2.426l-1.65-0.932l3.617-1.86l-1.327,5.636l-1.329,1.536l-5.951,2.753  l-1.692,2.514l-4.032,1.167l-2.702,3.312l3.48,1.769l1.879-3.495l3.067,0.559l2.105-1.958l2.702,1.958l1.144,3.312l-1.556,1.164  l4.029-0.981l-0.55-1.723l2.292,1.164l-2.887-3.73l-0.365-2.328l5.725,0.236l1.331,7.175h2.289l-1.88,4.658  c-1.682-0.091-3.65-0.446-5.907-1.072c-3.82-1.086-5.739-1.631-5.771-1.631c-1.343-0.183-2.686-0.387-4.028-0.601  c-1.556-0.25-2.839-0.731-3.846-1.445c-4.303,1.832-7.617,3.09-9.938,3.772l-1.373,7.084l2.059,4.894l7.972,1.913l3.572,5.126  c1.585,6.089,2.561,12.129,2.927,18.128l4.212,2.795l5.864-5.126c1.127-4.287,1.679-9.055,1.648-14.307  c1.951-2.454,3.904-4.862,5.859-7.221c-0.183-3.295-1.222-6.712-3.117-10.252l1.054-0.657l3.349,7.692l5.86-2.145l-2.294-4.476  c3.85-0.401,5.862-0.602,6.045-0.602c0.03,0,3.449,0.373,10.255,1.122c0.02,0.521,0.037,1.041,0.037,1.564  C86.782,56.831,82.533,67.086,74.82,74.797z M46.272,23.109l-1.74,2.148l1.923,0.183l2.059-2.145l-3.938-4.658l-0.691,1.769  l1.241,2.285L46.272,23.109z M50.849,35.171h-1.926l1.743,1.909L50.849,35.171z M39.542,16.897l-0.547-1.772h-2.522l-0.961,3.312  l2.519-0.373L39.542,16.897z M43.204,23.471l-0.963-1.772l-0.961,1.585l0.598,1.727L43.204,23.471z"/>
</svg>