<?xml version="1.0" encoding="UTF-8" standalone="no"?>
<!-- Created with Inkscape (http://www.inkscape.org/) -->

<svg
   xmlns:dc="http://purl.org/dc/elements/1.1/"
   xmlns:cc="http://creativecommons.org/ns#"
   xmlns:rdf="http://www.w3.org/1999/02/22-rdf-syntax-ns#"
   xmlns:svg="http://www.w3.org/2000/svg"
   xmlns="http://www.w3.org/2000/svg"
   xmlns:sodipodi="http://sodipodi.sourceforge.net/DTD/sodipodi-0.dtd"
   xmlns:inkscape="http://www.inkscape.org/namespaces/inkscape"
   width="413.48587"
   height="322.22208"
   id="svg3026"
   version="1.1"
   inkscape:version="0.48.3.1 r9886"
   sodipodi:docname="logo.svg">
  <defs
     id="defs3028" />
  <sodipodi:namedview
     id="base"
     pagecolor="#ffffff"
     bordercolor="#666666"
     borderopacity="1.0"
     inkscape:pageopacity="0"
     inkscape:pageshadow="2"
     inkscape:zoom="0.49497475"
     inkscape:cx="-368.90458"
     inkscape:cy="367.10782"
     inkscape:document-units="px"
     inkscape:current-layer="layer1"
     showgrid="false"
     inkscape:snap-global="false"
     showguides="true"
     showborder="true"
     borderlayer="false"
     fit-margin-top="0"
     fit-margin-left="0"
     fit-margin-right="0"
     fit-margin-bottom="0"
     inkscape:window-width="1301"
     inkscape:window-height="744"
     inkscape:window-x="65"
     inkscape:window-y="24"
     inkscape:window-maximized="1">
    <inkscape:grid
       type="xygrid"
       id="grid3041"
       empspacing="5"
       visible="true"
       enabled="true"
       snapvisiblegridlinesonly="true"
       originx="-2.906118e-09px"
       originy="-300px" />
  </sodipodi:namedview>
  <metadata
     id="metadata3031">
    <rdf:RDF>
      <cc:Work
         rdf:about="">
        <dc:format>image/svg+xml</dc:format>
        <dc:type
           rdf:resource="http://purl.org/dc/dcmitype/StillImage" />
        <dc:title></dc:title>
      </cc:Work>
    </rdf:RDF>
  </metadata>
  <g
     inkscape:label="Layer 1"
     inkscape:groupmode="layer"
     id="layer1"
     transform="translate(0,-430.13995)">
    <path
       inkscape:connector-curvature="0"
       style="fill:#006196;stroke:none;fill-opacity:1"
       d="m 166.85218,501.89077 0.004,-0.0213 m 37.97,184.08876 0.1625,-0.031 m 1.75625,31.5112 c -34.84625,0 -66.39625,-14.125 -89.23,-36.9562 -5.6475,-5.65002 -10.76375,-11.83127 -15.26375,-18.46627 l -7.589986,2.03375 c 5.1025,7.84125 11.006236,15.11002 17.588736,21.69622 24.18375,24.1813 57.5925,39.1388 94.495,39.1388 36.9025,0 70.31125,-14.9575 94.495,-39.1388 6.58375,-6.5862 12.48625,-13.85747 17.58875,-21.69622 l -7.59,-2.03125 c -4.5,6.6325 -9.61625,12.81625 -15.2625,18.46377 -22.835,22.8312 -54.38375,36.9562 -89.23125,36.9562 z M 89.076194,616.34327 l 5.24,-0.39625 1.52375,-4.92875 9.019986,-0.69125 2.25,4.64375 5.56375,-0.42375 -11.21249,-22.0575 -4.652496,0.35125 -7.7325,23.5025 z m 10.4225,-16.9975 3.032486,6.25125 -5.109986,0.38875 2.0775,-6.64 z m 37.647486,7.555 c -1.465,1.2275 -3.235,1.84 -4.85875,1.92625 -4.1175,0.22125 -7.06375,-2.49625 -7.28875,-6.54375 -0.23625,-4.48875 2.50125,-7.06375 6.0225,-7.25 2.15125,-0.115 3.45875,0.4675 4.73875,1.1575 l 2.10375,-4.04125 c -1.44375,-1.2625 -4.07375,-2.16875 -7.10625,-2.005 -7.8575,0.41875 -11.645,5.8875 -11.2925,12.43625 0.38125,7.10625 5.52125,11.5425 12.5925,11.1675 3.0975,-0.165 6.00125,-1.435 7.2875,-3.04125 l -2.19875,-3.80625 z m 26.35,5.145 5.21,-0.1725 -0.73375,-22.835 -5.21,0.165 0.28125,8.7475 -8.32375,0.26625 -0.28125,-8.74625 -5.2175,0.1725 0.73375,22.83375 5.2175,-0.16375 -0.29375,-9.20875 8.32125,-0.265 0.29625,9.20625 z m 18.32125,-0.43125 5.22375,-0.0925 -0.4025,-22.85 -5.22375,0.0937 0.4025,22.84875 z m 37.1725,-23.05625 -5.25375,-0.009 -5.5075,15.0725 -5.7275,-15.09375 -5.5775,-0.007 9.10125,22.86375 4.0175,0.009 8.9475,-22.835 z m 17.9825,16.79625 c -0.0213,1.07875 -0.82,1.745 -2.19125,1.71875 -1.59625,-0.0375 -3.57125,-0.82 -4.845,-2.5175 l -3.04125,3.5025 c 1.0575,2.47125 4.595,3.85 7.6625,3.90875 4.40625,0.0862 7.88375,-2.5875 7.965,-6.57 0.14375,-7.44625 -9.4025,-6.72125 -9.33,-10.50125 0.0212,-1.04875 0.885,-1.68875 2.32,-1.65875 1.6975,0.035 2.4375,0.64 3.43,1.6075 l 2.88125,-3.8575 c -1.4,-1.5675 -3.73625,-2.59625 -6.67,-2.6525 -4.57,-0.0862 -7.43875,2.925 -7.50375,6.45375 -0.15,7.37375 9.3875,7.13625 9.3225,10.56625 z m 14.64,-11.35625 6.85875,0.26625 -0.69,17.94 5.22625,0.2 0.6825,-17.94 6.8475,0.25875 0.18875,-4.88625 -18.925,-0.72625 -0.18875,4.8875 z m 28.3925,19.16125 13.85,0.805 0.28625,-4.88625 -8.63125,-0.4975 0.2375,-4.14625 7.325,0.43125 0.28625,-4.88875 -7.3225,-0.42375 0.22875,-4.01 8.3075,0.48125 0.28875,-4.88625 -13.52875,-0.79125 -1.3275,22.8125 z m 30.835,2.04 0.62375,-7.975 1.9125,0.1475 4.91625,8.41 6.31875,0.48875 -5.94625,-9.5 c 1.28625,-0.5175 4.025,-2.0425 4.3575,-6.2675 0.32375,-4.20625 -1.64625,-7.46 -7.8625,-7.94875 -0.6475,-0.0512 -6.48375,-0.44 -7.75,-0.54 l -1.775,22.78375 5.205,0.40125 z m 3.6725,-17.78875 c 2.50625,0.2025 3.0675,1.45125 2.9675,2.725 -0.15125,1.91875 -1.7675,2.515 -3.75375,2.35875 l -1.88,-0.14625 0.39375,-5.045 c 1.07125,0.0425 1.495,0.0513 2.2725,0.1075 z m 31.7625,-15.10125 c 0.73625,0.075 1.27625,0.73875 1.2,1.47625 -0.075,0.73625 -0.73875,1.27625 -1.475,1.2 -22.94875,-2.415 -45.97375,-4.20875 -69.02125,-5.39875 -23.35,-1.20625 -46.78625,-1.8 -70.25,-1.8 -23.4625,0 -46.89125,0.59375 -70.2325,1.8 -22.51375,1.1625 -45.007486,2.9025 -67.429976,5.23375 l 12.26375,44.4525 c 0.19625,0.715 -0.22125,1.4575 -0.93625,1.65375 -0.715,0.1975 -1.4575,-0.22125 -1.65375,-0.93625 l -12.66875,-45.9175 c -0.0288,-0.0913 -0.0512,-0.18875 -0.0612,-0.2875 -0.0763,-0.7375 0.46375,-1.40125 1.2,-1.47625 22.98874,-2.4175 46.059976,-4.2175 69.151226,-5.41 23.4825,-1.21375 46.95375,-1.81 70.3675,-1.81 23.415,0 46.89375,0.59625 70.38375,1.81 23.09625,1.1925 46.17125,2.9925 69.1625,5.41 z m -150.4225,119.73621 -1.125,4.5213 c -0.175,0.7212 -0.90625,1.16 -1.62625,0.985 l -0.0325,-0.01 -0.0362,-0.011 -0.0312,-0.01 -2.80625,-0.6925 c -0.72125,-0.175 -1.16,-0.9075 -0.985,-1.6275 0.175,-0.72 0.90625,-1.16 1.6275,-0.985 l 1.605,0.3975 0.59375,-2.3888 -0.0813,0 c -4.74125,0.1275 -7.9925,-0.8812 -8.6175,-3.0562 l -0.025,-0.1075 c -0.52375,-2.1488 1.68125,-4.6875 5.6875,-7.0563 1.33375,-0.7875 2.885,-1.5862 4.61125,-2.3612 -0.60625,-2.6763 -0.16375,-5.3713 1.08,-7.625 1.3375,-2.4225 3.6125,-4.34127 6.48875,-5.16877 2.8675,-0.82625 5.80625,-0.41375 8.22625,0.9225 2.25375,1.24377 4.0725,3.29627 4.98125,5.89247 1.8675,-0.2587 3.6025,-0.4125 5.15125,-0.4537 4.74,-0.1263 7.99125,0.8825 8.6175,3.0575 l 0.0237,0.1075 c 0.52375,2.145 -1.68,4.6875 -5.6875,7.0562 l -0.0775,0.046 1.77,1.7025 1.14375,-1.1875 c 0.515,-0.535 1.3675,-0.5512 1.90125,-0.035 0.535,0.515 0.55125,1.3675 0.035,1.9025 l -2.0475,2.1263 -0.03,0.029 c -0.515,0.535 -1.3675,0.5512 -1.90125,0.035 l -0.025,-0.024 -0.0238,-0.025 -3.305,-3.18 c -3.03875,1.5187 -6.79125,3.0075 -10.9525,4.27 l 0.79125,2.745 c 0.2025,0.7125 -0.21125,1.4587 -0.9225,1.6612 -0.7125,0.2025 -1.46,-0.21 -1.6625,-0.9225 l -0.7875,-2.7362 c -4.185,1.1337 -8.1575,1.87 -11.54625,2.2 z m 64.745,-35.96122 c -1.08125,0.50125 -2.16625,1.00625 -3.24625,1.51375 0.15125,1.18375 0.3,2.36875 0.45125,3.55625 -0.815,-0.875 -1.6275,-1.74875 -2.4425,-2.6175 -1.08125,0.51 -2.16375,1.0175 -3.24,1.5275 0.5775,-1.045 1.1575,-2.09125 1.735,-3.13875 -0.82,-0.86875 -1.635,-1.74 -2.455,-2.60875 1.17375,0.22875 2.34375,0.45625 3.5175,0.6825 0.5725,-1.04625 1.1475,-2.09375 1.725,-3.1375 0.1425,1.18375 0.29125,2.36875 0.43625,3.55625 1.17125,0.22125 2.3425,0.4425 3.51875,0.66625 z m -17.75125,15.10872 c -0.25625,1.1663 -0.5125,2.3313 -0.76625,3.4975 1.03375,0.6013 2.0675,1.2013 3.1,1.8 -1.19,0.1188 -2.37625,0.235 -3.56125,0.3525 -0.25375,1.1713 -0.505,2.3375 -0.7525,3.505 -0.4775,-1.0925 -0.96125,-2.19 -1.44125,-3.2862 -1.1875,0.1275 -2.3775,0.2462 -3.56375,0.37 0.8925,-0.7938 1.78375,-1.5863 2.67625,-2.3825 -0.4825,-1.09 -0.96625,-2.18 -1.44625,-3.275 1.0275,0.6037 2.05875,1.2087 3.0925,1.81 0.8875,-0.7938 1.7725,-1.5925 2.6625,-2.3913 z m 25.55125,4.455 c -0.77625,0.9075 -1.55625,1.8138 -2.33125,2.72 0.62625,1.0175 1.2525,2.035 1.87875,3.0513 -1.10125,-0.4588 -2.205,-0.9175 -3.3025,-1.3763 -0.7775,0.9125 -1.54875,1.825 -2.32125,2.7338 0.095,-1.19 0.18875,-2.385 0.28375,-3.575 -1.10625,-0.4538 -2.21,-0.91 -3.31375,-1.365 1.16375,-0.2725 2.32375,-0.5513 3.48625,-0.8288 0.0863,-1.19 0.17875,-2.38 0.2725,-3.5725 0.62125,1.02 1.24375,2.04 1.8675,3.06 1.16,-0.2812 2.3175,-0.5637 3.48,-0.8475 z m -118.29125,-3.775 c 0.29625,1.1588 0.59,2.315 0.89,3.47 1.1925,0.07 2.385,0.1438 3.5775,0.2138 -1.00875,0.6387 -2.01875,1.2787 -3.0225,1.9187 0.3025,1.1575 0.605,2.3113 0.9075,3.4638 -0.92,-0.7575 -1.84625,-1.5213 -2.76625,-2.2825 -1.00625,0.6475 -2.0125,1.29 -3.01875,1.935 0.4425,-1.1125 0.88,-2.2213 1.31875,-3.3325 -0.9225,-0.755 -1.845,-1.5138 -2.765,-2.275 1.19,0.079 2.3825,0.1512 3.575,0.2275 0.43375,-1.11 0.86625,-2.2213 1.30375,-3.3388 z m 26.2225,0.875 c -0.25625,1.165 -0.5125,2.3313 -0.76625,3.4963 1.03375,0.6025 2.0675,1.2012 3.1,1.8 -1.19,0.1187 -2.37625,0.235 -3.56125,0.3537 -0.25375,1.1713 -0.505,2.3363 -0.7525,3.505 -0.4775,-1.0937 -0.96125,-2.1912 -1.44125,-3.2862 -1.1875,0.1262 -2.37625,0.245 -3.56375,0.3687 0.8925,-0.7925 1.7825,-1.5862 2.67625,-2.3825 -0.4825,-1.09 -0.96625,-2.18 -1.44625,-3.275 1.0275,0.6038 2.05875,1.2088 3.0925,1.81 0.8875,-0.7925 1.7725,-1.5912 2.6625,-2.39 z m -12.10875,-19.13242 c 0.19125,1.17875 0.3825,2.355 0.57375,3.53375 1.1825,0.17625 2.36375,0.35375 3.54625,0.52875 -1.06125,0.54875 -2.12375,1.09625 -3.18125,1.64125 0.19625,1.18125 0.39375,2.3575 0.59375,3.535 -0.8475,-0.84 -1.7,-1.68125 -2.55,-2.52125 -1.06,0.55375 -2.11875,1.10375 -3.17875,1.655 0.54,-1.06625 1.07375,-2.1325 1.61125,-3.2 -0.8525,-0.83375 -1.7025,-1.67 -2.5525,-2.5125 1.17875,0.18375 2.36125,0.36375 3.5425,0.545 0.53125,-1.06625 1.06,-2.13375 1.595,-3.205 z m 36.88375,22.37252 c -0.14375,0.7287 -0.8525,1.2062 -1.58125,1.0637 -0.72875,-0.1437 -1.20625,-0.8525 -1.06375,-1.5812 0.24375,-1.225 0.82375,-2.3425 1.64125,-3.23 0.81125,-0.885 1.8775,-1.5563 3.08125,-1.9025 0.7125,-0.2025 1.46,0.2112 1.66125,0.9237 0.2025,0.7113 -0.21,1.4588 -0.9225,1.6613 -0.715,0.205 -1.35125,0.61 -1.84,1.1412 -0.485,0.5288 -0.83375,1.195 -0.97625,1.9238 z m 16.8175,5.0275 c -0.7725,0.2212 -1.57375,-0.2225 -1.795,-0.9938 -0.22125,-0.7687 0.22125,-1.57 0.99375,-1.7912 0.76875,-0.2213 1.57,0.2212 1.79125,0.99 0.22125,0.7725 -0.22125,1.5725 -0.99,1.795 z m -10.77375,3.1025 c -0.76875,0.2212 -1.57,-0.2213 -1.795,-0.9938 -0.22125,-0.7687 0.22125,-1.57 0.99375,-1.7912 0.76875,-0.2238 1.57,0.2212 1.79375,0.99 0.22125,0.77 -0.22375,1.5737 -0.9925,1.795 z m -10.77375,3.1025 c -0.76875,0.2212 -1.57,-0.2213 -1.79125,-0.9925 -0.22125,-0.7688 0.22125,-1.57 0.99,-1.795 0.77125,-0.2213 1.5725,0.2212 1.79375,0.9937 0.22125,0.7688 -0.22125,1.57 -0.9925,1.7938 z m 0.77375,-8.645 c 2.32125,-0.9275 4.87875,-1.8075 7.585,-2.59 l 0.065,-0.019 0.0288,-0.01 c 2.7225,-0.7825 5.3725,-1.4 7.85,-1.85 -0.72625,-1.73 -2.0075,-3.1063 -3.565,-3.9663 -1.82125,-1.0062 -4.03625,-1.3175 -6.1925,-0.6987 0,0 0,0 0,0 -2.1525,0.62 -3.86125,2.0612 -4.86375,3.8787 -0.86125,1.56 -1.20875,3.4025 -0.9075,5.2563 z m 23.455,-2.6713 c -3.985,0.105 -9.31375,0.9988 -15.03625,2.645 l 0,0 -0.0188,0.01 -0.065,0.019 c -5.69875,1.6463 -10.67875,3.7313 -14.11125,5.76 -2.92,1.73 -4.63,3.2188 -4.4575,4.0638 l 0.0137,0.04 c 0.24,0.8375 2.50625,1.2012 5.9625,1.11 3.9825,-0.1063 9.3175,-0.9988 15.0425,-2.645 l 0.0188,0 0,0 0.04,-0.014 0,0 0.0225,-0.01 c 5.69,-1.64 10.67125,-3.7263 14.10875,-5.76 2.91875,-1.7275 4.62875,-3.2163 4.4575,-4.0638 l -0.0137,-0.041 c -0.24,-0.8362 -2.5075,-1.2 -5.96375,-1.1087 z m 124.09875,-43.85246 c -0.0587,0.2375 -0.145,0.475 -0.25875,0.70125 l -0.007,0.0112 c -0.0788,0.1475 -0.1575,0.29125 -0.25625,0.42875 -0.0863,0.12125 -0.18125,0.2375 -0.28125,0.3425 l -0.002,0 -0.15125,0.15375 -0.002,0 c -0.11625,0.11125 -0.24,0.21375 -0.37,0.305 l -0.0213,0.0138 -0.06,0.04 -0.005,0.005 -0.18,0.10875 0,0.002 -0.0925,0.0512 -0.035,0.0163 -0.0112,0.007 -0.0488,0.025 -0.005,0 -0.04,0.0213 -24.48875,12.67374 67.64,18.12 -19.025,-33.60749 c -0.91375,-1.61375 -0.3475,-3.67 1.26625,-4.585 l 0.0587,-0.0312 33.1825,-19.54 -46.54625,-12.46875 -1.58625,5.7525 29.49625,7.90875 c 0.76875,0.205 1.2275,0.9975 1.0225,1.76625 -0.205,0.77 -0.99875,1.22875 -1.7675,1.02375 l -29.52,-7.91375 -7.885,28.58875 -0.0188,0.0787 z m -38.86125,16.66624 -3.6125,-11.84999 c -5.305,9.08499 -11.86875,17.34624 -19.45375,24.53874 -0.5375,0.51125 -1.3925,0.49125 -1.9025,-0.045 -0.51,-0.5375 -0.49125,-1.3925 0.0462,-1.9025 8.005,-7.5925 14.845,-16.4075 20.2275,-26.14249 l -0.66125,-2.16625 -3.56375,-0.2425 c -2.97,5.38 -6.4075,10.4625 -10.255,15.20124 -0.4675,0.575 -1.3175,0.66375 -1.8925,0.19625 -0.57375,-0.46625 -0.66375,-1.31625 -0.19625,-1.89125 3.48,-4.28499 6.61875,-8.86624 9.365,-13.70124 l -5.43875,-0.34 c -4.56,7.56875 -10.135,14.45124 -16.535,20.45499 -0.54,0.5075 -1.395,0.4825 -1.9025,-0.0563 -0.5075,-0.54 -0.4825,-1.395 0.0575,-1.9025 5.88375,-5.5175 11.04875,-11.79624 15.33875,-18.67374 -3.68375,-0.21375 -7.38,-0.41375 -11.08125,-0.59625 l -5.0975,-0.24375 c -2.0825,2.70625 -4.34125,5.2725 -6.75,7.6825 l 0.005,0.005 c -14.27375,14.27374 -34.005,23.10749 -55.7925,23.10749 -21.7875,0 -41.51625,-8.83375 -55.7925,-23.10749 l 0.006,-0.007 c -2.41,-2.4125 -4.665,-4.97625 -6.75125,-7.6825 l -5.11625,0.24625 c -3.69625,0.1825 -7.3875,0.38 -11.0675,0.59375 4.30625,6.9125 9.4975,13.21499 15.4125,18.74624 0.53875,0.505 0.56625,1.3575 0.0612,1.89625 -0.50375,0.54 -1.35625,0.5675 -1.89625,0.0625 -6.44125,-6.0225 -12.0475,-12.92624 -16.61875,-20.52499 l -5.43125,0.3375 c 2.815,4.94875 6.03375,9.6325 9.61625,14.00874 0.47,0.575 0.38375,1.4275 -0.19125,1.8975 -0.575,0.46875 -1.4275,0.3825 -1.89625,-0.1925 -3.95375,-4.82624 -7.4775,-10.01999 -10.5125,-15.51999 l -3.56625,0.24625 -0.65875,2.1525 c 5.3775,9.72749 12.20625,18.53999 20.195,26.12374 0.5375,0.51 0.55625,1.365 0.0462,1.9025 -0.51,0.5375 -1.365,0.55625 -1.9025,0.0463 -7.57125,-7.19125 -14.125,-15.4425 -19.42125,-24.51874 l -3.615,11.86124 -0.0212,0.0812 -0.006,0.0213 0,0.009 c -0.04,0.145 -0.0913,0.2875 -0.14875,0.42875 l -0.01,0.0238 0,0.006 c -0.1275,0.29625 -0.2975,0.57625 -0.505,0.825 l -0.0237,0.0263 c -0.41,0.48875 -0.96375,0.86125 -1.61375,1.0525 l -0.005,0 -0.0787,0.0225 0,0.003 -0.21875,0.0587 c 4.27625,6.1975 9.10375,11.98875 14.41125,17.29497 22.34625,22.3438 53.22125,36.1688 87.32,36.1688 34.1,0 64.975,-13.825 87.32,-36.1688 5.3075,-5.30622 10.135,-11.09747 14.41125,-17.29497 l -0.22375,-0.0587 0,-0.003 -0.0788,-0.0225 -0.005,0 c -0.6525,-0.19125 -1.20125,-0.56625 -1.61375,-1.0525 l -0.0238,-0.0263 c -0.2075,-0.25125 -0.3775,-0.52875 -0.505,-0.825 l 0,-0.006 -0.01,-0.0238 c -0.06,-0.14125 -0.11125,-0.28375 -0.14875,-0.42875 l 0,-0.009 -0.006,-0.0213 -0.0213,-0.0812 z m 1.82125,-17.05499 3.495,11.46124 18.6,-9.62374 c -7.32,-0.6725 -14.68875,-1.285 -22.095,-1.8375 z m 15.8225,23.63249 c -5.45625,8.58875 -11.84,16.53002 -19.00125,23.69252 -25.01125,25.01 -59.56875,40.4837 -97.7375,40.4837 -38.1675,0 -72.72625,-15.4737 -97.7375,-40.4837 -7.15874,-7.16 -13.536236,-15.10877 -18.994986,-23.69502 l -17.58874,4.71375 c 0.9975,3.24125 2.41625,6.2225 4.235,8.91747 5.0625,7.5038 13.30499,12.9075 24.311236,15.6388 1.17374,0.2912 2.15499,1.2087 2.46249,2.4637 2.72,11.0025 8.1225,19.245 15.6275,24.3075 7.50125,5.0563 17.215,7.02 28.57125,5.4775 l 0,0 c 1.17125,-0.1537 2.39625,0.31 3.14875,1.3275 6.8375,9.2625 15.2125,14.945 24.435,16.8088 9.17875,1.8537 19.3475,-0.024 29.83625,-5.855 l 0.0425,-0.024 0.0187,-0.011 c 0.9825,-0.545 2.215,-0.585 3.265,0 10.51,5.8575 20.7025,7.75 29.90625,5.89 9.195,-1.8588 17.54875,-7.5088 24.3725,-16.715 0.69625,-1.0063 1.92125,-1.5975 3.21875,-1.4238 11.35375,1.5425 21.065,-0.4187 28.5575,-5.475 7.50375,-5.0612 12.9025,-13.305 15.6225,-24.31 0.29125,-1.1737 1.20875,-2.1562 2.4625,-2.4637 11.00625,-2.7313 19.255,-8.14 24.31875,-15.6488 1.81625,-2.68997 3.235,-5.66997 4.23125,-8.90497 l -17.58375,-4.71375 z m 24.0975,6.46 c -1.19625,3.955 -2.9225,7.61122 -5.16,10.92502 -5.6925,8.44 -14.615,14.5987 -26.34375,17.8987 -3.29,11.7325 -9.44375,20.6525 -17.87875,26.3425 -8.4175,5.6825 -19.035,8.0788 -31.26375,6.7888 -7.64,9.7162 -16.97875,15.7387 -27.335,17.8287 -10.2825,2.075 -21.46375,0.2438 -32.855,-5.72 -11.39125,5.9638 -22.57,7.795 -32.8475,5.72 -10.35,-2.09 -19.6875,-8.11 -27.32625,-17.8287 -12.23125,1.29 -22.84875,-1.1088 -31.2775,-6.7913 -8.43625,-5.69 -14.59124,-14.6137 -17.882486,-26.34 -11.72625,-3.3 -20.64624,-9.4562 -26.33749,-17.8887 -2.23625,-3.3188 -3.96625,-6.97377 -5.15875,-10.93752 l -44.465,11.91252 c -1.7975,0.4775 -3.645,-0.5888 -4.12375,-2.385 -0.2525,-0.955 -0.07,-1.93 0.4275,-2.6988 l 21.2525,-37.55246 -37.3474996,-21.9925 c -1.6,-0.93625 -2.13375,-2.99875 -1.1975,-4.5975 0.46375,-0.79375 1.20625,-1.325 2.03125,-1.54625 l -0.002,-0.009 45.6799996,-12.23875 c 1.0225,-3.105 2.355,-6.24375 4.00625,-9.395 -5.9625,-11.39125 -7.795,-22.56375 -5.72,-32.8475 2.09125,-10.3475 8.11,-19.685 17.82875,-27.32625 -1.28875,-12.23125 1.11,-22.8425 6.78875,-31.26375 5.69125,-8.43625 14.61124,-14.59375 26.33999,-17.89125 3.299996,-11.72625 9.456236,-20.65125 17.893736,-26.3425 8.42125,-5.67875 19.0325,-8.0775 31.26375,-6.78875 7.64125,-9.71875 16.97625,-15.7375 27.32625,-17.82875 10.28,-2.075 21.45625,-0.24 32.8475,5.7225 11.39125,-5.9625 22.5675,-7.7975 32.845,-5.7225 10.35,2.09125 19.685,8.11625 27.32875,17.82875 12.22875,-1.28875 22.84,1.11 31.26375,6.79125 8.4375,5.69125 14.595,14.61125 17.89125,26.34 11.72875,3.2975 20.65,9.455 26.34,17.89125 5.6825,8.42375 8.08125,19.035 6.79125,31.26375 9.7125,7.64375 15.7375,16.97875 17.82875,27.33 2.075,10.27625 0.24125,21.4525 -5.7225,32.84375 1.65125,3.15125 2.985,6.29 4.0075,9.395 l 45.67625,12.23875 -0.002,0.009 c 0.82625,0.22125 1.5675,0.7525 2.03125,1.54625 0.93625,1.59875 0.4025,3.66125 -1.1975,4.5975 l -37.3475,21.9925 21.2525,37.55246 c 0.4975,0.7688 0.68,1.7438 0.4275,2.6988 -0.47875,1.7962 -2.32625,2.8625 -4.12375,2.385 l -44.45375,-11.91002 z m 9.7425,-73.25249 -0.3775,-0.86 -0.195,0.70625 0.5725,0.15375 z m -153.92775,-102.0413 -0.105,5.955 c 0.90375,-0.1025 1.77625,-0.32375 2.59375,-0.6475 l 0.0637,-0.0238 c 0.69875,-0.28125 1.3625,-0.6375 1.97875,-1.05875 l -0.055,-0.04 -0.002,0 -0.0537,-0.0375 -0.0538,-0.04 -0.0488,-0.0362 -0.005,-0.005 -0.0575,-0.04 -0.0537,-0.0412 -0.04,-0.0288 -0.0137,-0.0113 -0.0538,-0.04 -0.0537,-0.0412 -0.0325,-0.0238 -0.0212,-0.0163 -0.055,-0.0412 -0.0538,-0.04 -0.0237,-0.0188 -0.03,-0.0238 -0.0538,-0.0412 -0.0538,-0.04 -0.0137,-0.0138 -0.0413,-0.03 -0.0512,-0.04 -0.0538,-0.0437 -0.005,-0.005 -0.0488,-0.0375 -0.0512,-0.0412 -0.0513,-0.0425 -0.002,0 -0.0513,-0.0437 -0.0537,-0.0425 -0.0413,-0.035 -0.01,-0.009 -0.0538,-0.0425 -0.0512,-0.0437 -0.0325,-0.0263 -0.0188,-0.0163 -0.0513,-0.0437 -0.0537,-0.0425 -0.025,-0.0225 -0.0275,-0.0213 -0.0513,-0.0462 -0.0512,-0.0425 -0.0163,-0.0163 -0.035,-0.03 -0.0513,-0.0425 -0.0512,-0.0462 -0.008,-0.005 -0.0437,-0.0387 -0.0487,-0.045 -0.0513,-0.0437 0,-0.002 -0.0513,-0.0437 -0.0475,-0.045 -0.0438,-0.0375 -0.007,-0.009 -0.0513,-0.0463 -0.0487,-0.045 -0.035,-0.03 -0.0163,-0.0163 -0.0487,-0.0462 -0.0488,-0.045 -0.0263,-0.025 -0.025,-0.0213 -0.0487,-0.0462 -0.0488,-0.0462 -0.0187,-0.0188 -0.0288,-0.0288 -0.0488,-0.0462 -0.0487,-0.0463 -0.0113,-0.01 -0.0375,-0.0387 -0.0487,-0.045 -0.0488,-0.0487 -0.002,-0.002 -0.0463,-0.0462 -0.0487,-0.0462 -0.0425,-0.0425 -0.005,-0.006 -0.0462,-0.0475 -0.0488,-0.0462 -0.035,-0.0375 -0.0137,-0.0113 -0.045,-0.0487 -0.0487,-0.0488 -0.0275,-0.0288 -0.0188,-0.0187 -0.002,-0.004 -0.6725,-0.7275 -0.0375,-0.0438 -0.0513,-0.0537 -0.0213,-0.0275 -0.21875,-0.25125 -0.0137,-0.0125 -0.0937,-0.11375 -0.03,-0.0325 -0.005,-0.0113 -0.0713,-0.0825 -0.035,-0.0412 z m 78.68625,6.00375 c 0.56375,1.0225 1.12625,2.0425 1.69,3.06 1.14125,-0.22375 2.285,-0.44875 3.42625,-0.675 -0.79625,0.8525 -1.59,1.7025 -2.3825,2.55 0.56625,1.02 1.13,2.03375 1.6975,3.05125 -1.0525,-0.49125 -2.1075,-0.9875 -3.165,-1.47875 -0.79125,0.8525 -1.58375,1.705 -2.38,2.56125 0.14875,-1.155 0.28875,-2.3125 0.43375,-3.47 -1.0575,-0.48875 -2.1125,-0.98 -3.1675,-1.4675 1.14125,-0.22125 2.28875,-0.44 3.43,-0.66125 0.14,-1.155 0.2775,-2.3125 0.4175,-3.47 z m -19.63375,-9.58125 c -0.9875,0.6725 -1.975,1.34375 -2.96,2.01875 0.34,1.14375 0.6775,2.29 1.0175,3.4375 -0.945,-0.735 -1.88875,-1.46625 -2.83125,-2.19125 -0.9875,0.6775 -1.97125,1.35125 -2.95125,2.02875 0.39875,-1.1225 0.80375,-2.25 1.20625,-3.3775 -0.95,-0.72375 -1.89375,-1.4525 -2.84375,-2.18125 1.195,0.0387 2.3875,0.0737 3.5825,0.10875 0.3975,-1.125 0.79625,-2.2475 1.19875,-3.375 0.33125,1.14625 0.66625,2.2925 1.00375,3.4425 1.18875,0.03 2.3825,0.0588 3.5775,0.0888 z m 2.03125,18.20125 c -0.25625,1.16625 -0.5125,2.33125 -0.76625,3.4975 1.03375,0.60125 2.0675,1.2 3.1,1.8 -1.19,0.11875 -2.37625,0.23375 -3.56125,0.3525 -0.25375,1.17125 -0.505,2.3375 -0.7525,3.505 -0.4775,-1.0925 -0.96125,-2.19125 -1.44125,-3.28625 -1.1875,0.1275 -2.37625,0.24625 -3.56375,0.37 0.8925,-0.79375 1.78375,-1.58625 2.67625,-2.3825 -0.4825,-1.09 -0.96625,-2.18 -1.44625,-3.27625 1.0275,0.605 2.05875,1.21 3.0925,1.81125 0.8875,-0.79375 1.7725,-1.5925 2.6625,-2.39125 z m -23.5875,-2.555 c -0.9875,0.6725 -1.975,1.34375 -2.96,2.01875 0.34125,1.14375 0.6775,2.29125 1.0175,3.4375 -0.94375,-0.73375 -1.88875,-1.465 -2.83,-2.19125 -0.9875,0.6775 -1.9725,1.3525 -2.95125,2.02875 0.39875,-1.1225 0.80375,-2.25 1.205,-3.3775 -0.94875,-0.72375 -1.89375,-1.45125 -2.84375,-2.18 1.195,0.0375 2.38875,0.0725 3.58375,0.1075 0.39625,-1.125 0.79625,-2.2475 1.1975,-3.375 0.3325,1.14625 0.66625,2.2925 1.00375,3.4425 1.19,0.03 2.3825,0.06 3.5775,0.0888 z m -19.6175,-6.15125 c 3.80625,0.0675 7.40625,-0.885 10.51375,-2.60375 l 0,-0.002 c 2.9875,-1.65375 5.5425,-4.03125 7.415,-6.88875 -1.7675,-2.92 -4.23625,-5.38 -7.16125,-7.1425 -3.04625,-1.82875 -6.6075,-2.91375 -10.41125,-2.98125 -3.76125,-0.0675 -7.32,0.86375 -10.40125,2.5425 l -0.006,0.002 -0.0288,0.0188 -0.06,0.035 -0.15125,0.0837 -0.007,0.002 -0.0675,0.04 -0.07,0.0375 -0.006,0.006 -0.075,0.0425 -0.06,0.0325 -0.0125,0.0113 -0.0762,0.0437 -0.0488,0.0263 -0.0237,0.0163 -0.0763,0.0462 -0.0375,0.0213 -0.035,0.0213 -0.075,0.0462 -0.025,0.0138 -0.0488,0.0325 -0.0725,0.045 -0.0163,0.009 -0.0562,0.0375 -0.29125,0.18625 -0.0537,0.035 -0.02,0.0138 -0.07,0.045 -0.0425,0.0275 -0.03,0.0213 -0.0725,0.0487 -0.07,0.0488 -0.07,0.0487 -0.0225,0.0138 -0.0513,0.035 -0.07,0.0488 -0.01,0.007 -0.06,0.0437 -0.07,0.0487 -0.07,0.0513 -0.06,0.0425 -0.01,0.009 -0.0712,0.0475 -0.0475,0.0387 -0.0187,0.0125 -0.0713,0.0512 -0.0375,0.03 -0.0325,0.025 -0.0675,0.0513 -0.0288,0.0187 -0.0412,0.0325 -0.135,0.105 -0.0675,0.0537 -0.007,0.005 -0.06,0.0462 -0.0675,0.0538 -0.0662,0.0537 -0.0575,0.0462 -0.0112,0.009 -0.0675,0.0538 -0.0425,0.0375 -0.0213,0.0163 -0.0675,0.0562 -0.035,0.03 -0.03,0.0238 -0.0675,0.0575 -0.0238,0.0212 -0.0412,0.0325 -0.065,0.0562 -0.0163,0.0138 -0.0475,0.0425 -0.065,0.0575 -0.009,0.005 -0.0562,0.0512 -0.0625,0.0537 -0.003,0.002 -0.065,0.0575 -0.0512,0.0463 -0.01,0.01 -0.065,0.0575 -0.0437,0.04 -0.0188,0.0188 -0.065,0.0563 -0.0312,0.0325 -0.03,0.0275 -0.12375,0.11625 -0.0625,0.0587 -0.0162,0.0163 -0.0463,0.0437 -0.0537,0.0513 -0.0163,0.015 -0.035,0.0362 -0.0538,0.0512 -0.0237,0.0263 -0.0275,0.025 -0.0513,0.0512 -0.035,0.0375 -0.0163,0.0138 -0.15625,0.15875 -0.0512,0.0513 0,0.002 -0.0513,0.0512 -0.0513,0.0537 -0.009,0.009 -0.0425,0.0425 -0.0488,0.055 -0.0162,0.0188 -0.035,0.035 -0.0513,0.0537 -0.025,0.03 -0.0238,0.0238 -0.0512,0.0538 -0.0325,0.0375 -0.0163,0.0163 -0.0487,0.0575 -0.04,0.045 -0.0112,0.009 -0.0488,0.0537 -0.0475,0.0563 -0.0488,0.055 -0.0487,0.0562 -0.009,0.01 -0.04,0.0463 -0.0487,0.0537 -0.0138,0.02 -0.035,0.0375 -0.07,0.0863 -0.0238,0.0263 -0.0487,0.0575 -0.03,0.0375 -0.0163,0.0188 -0.0838,0.105 -0.01,0.0112 -0.0487,0.0563 -0.0438,0.0537 -0.002,0.002 -0.0462,0.06 -0.045,0.0562 -0.006,0.009 -0.04,0.0512 -0.0463,0.0563 -0.01,0.0162 -0.035,0.0438 -0.0463,0.0587 -0.0187,0.025 -0.025,0.0312 -0.045,0.06 -0.0275,0.035 -0.0188,0.0238 -0.0437,0.06 -0.0325,0.0425 -0.0125,0.0163 -0.0437,0.06 -0.0375,0.0538 -0.005,0.007 -0.0437,0.06 -0.0463,0.0587 0,0.004 -0.0425,0.0563 -0.0437,0.0625 -0.008,0.01 -0.0325,0.0487 -0.0437,0.0625 -0.0163,0.0213 -0.0262,0.0375 -0.0438,0.0625 -0.0212,0.03 -0.0188,0.0325 -0.0437,0.0587 -0.0263,0.04 -0.0138,0.0225 -0.04,0.0613 -0.035,0.0487 -0.009,0.0138 -0.04,0.0625 -0.0412,0.0587 0,0.002 0.0375,0.0625 0.0387,0.0613 0.008,0.0112 0.03,0.0513 0.04,0.0625 0.0137,0.0212 0.025,0.0413 0.0613,0.0937 0.0163,0.0275 0.0375,0.0612 0.0325,0.0463 0.009,0.0162 0.04,0.0588 0.0375,0.0575 0.004,0.005 0.04,0.06 0.0375,0.0612 0.009,0.009 0.0325,0.0512 0.0425,0.0613 0.0137,0.0187 0.0263,0.0413 0.0413,0.0587 0.0237,0.0325 0.0163,0.0275 0.0437,0.0587 0.0288,0.0438 0.0112,0.0162 0.0438,0.0588 0.21,0.295 0.0162,0.0188 0.245,0.32875 0.0437,0.0537 0,0.002 0.0463,0.0575 0.1775,0.22875 0.0462,0.0537 0.0263,0.0325 c 0.39125,0.4825 0.80125,0.94125 1.23375,1.39 l 0.0375,0.0375 0.0212,0.0238 0.06,0.0625 0.03,0.03 0.0312,0.0288 0.06,0.0625 0.0213,0.0187 0.0412,0.0413 0.0588,0.0612 0.0137,0.0113 0.0488,0.0487 0.0613,0.0587 0.002,0.002 0.06,0.0575 0.0563,0.0538 0.006,0.005 0.0613,0.06 0.0487,0.045 0.0138,0.0138 0.065,0.06 0.0375,0.035 0.0238,0.0213 0.065,0.06 0.03,0.0262 0.0325,0.03 0.065,0.0587 0.0188,0.02 0.0425,0.0375 0.065,0.0563 0.0137,0.0112 0.0513,0.045 0.065,0.0575 0.002,0.002 0.0613,0.0537 0.06,0.0488 0.009,0.007 0.0637,0.055 0.0488,0.0425 0.0163,0.0138 0.0675,0.0562 0.0375,0.0325 0.0275,0.0213 0.0675,0.0537 0.03,0.025 0.0375,0.03 0.065,0.0537 0.0213,0.0188 0.0462,0.035 0.0662,0.0537 0.0113,0.009 0.0563,0.045 0.0675,0.0538 0.0675,0.0525 0.06,0.045 0.01,0.009 0.0687,0.0512 0.0475,0.0375 0.0225,0.0162 0.0675,0.0513 0.0375,0.03 0.0325,0.0213 0.0675,0.0512 0.0288,0.0213 0.0412,0.03 0.07,0.0487 0.0187,0.0163 0.0513,0.035 0.07,0.0513 0.009,0.005 0.0613,0.0437 0.0675,0.0475 0.002,0 0.07,0.0525 0.06,0.04 0.0137,0.007 0.07,0.0487 0.07,0.0488 0.0725,0.0487 0.14375,0.095 0.0262,0.0187 0.1925,0.12125 0.0725,0.045 0.005,0.006 0.0675,0.04 0.14625,0.0925 0.0563,0.0375 0.0162,0.007 0.14875,0.0888 0.0725,0.0487 c 3.02125,1.7925 6.55125,2.8525 10.3125,2.92 z m 11.815,-0.25375 c -3.5075,1.94 -7.56625,3.01625 -11.85875,2.94125 -3.93375,-0.07 -7.63,-1.09875 -10.8625,-2.8525 -1.02,0.8425 -2.175,1.535 -3.41625,2.0325 l -0.075,0.0312 c -1.51125,0.5975 -3.1725,0.915 -4.905,0.89125 l -0.07,0 c -0.7425,-0.0113 -1.33375,-0.62375 -1.3225,-1.365 l 0.0513,-2.96625 c -0.58875,0.1675 -1.19,0.3075 -1.8,0.41625 l 0,-0.002 c -1.14375,0.205 -2.32875,0.30125 -3.53125,0.2825 -3.2925,-0.0562 -6.37125,-0.9925 -9.00125,-2.565 l -0.035,-0.02 c -2.72,-1.6375 -4.97875,-3.97125 -6.53,-6.7425 -0.1375,-0.21 -0.15125,-0.48875 -0.0137,-0.7175 1.64625,-2.73375 3.99875,-5 6.79125,-6.54875 l 0.004,0 c 2.695,-1.49125 5.82,-2.3175 9.11875,-2.26125 1.2125,0.02 2.39375,0.1625 3.52375,0.405 0.6075,0.13 1.20125,0.29125 1.78125,0.48 l 0.0537,-2.95875 c 0.0113,-0.7425 0.62375,-1.33375 1.365,-1.3225 1.75375,0.03 3.43,0.4125 4.94375,1.06875 1.25125,0.5475 2.40875,1.28875 3.42125,2.185 3.29125,-1.64 7.02375,-2.53375 10.95125,-2.46375 4.29875,0.0762 8.31625,1.29875 11.75125,3.36 3.53375,2.12625 6.4725,5.15625 8.4875,8.7575 0.2675,0.41875 0.29125,0.96875 0.0187,1.4225 -2.1425,3.55375 -5.19875,6.5 -8.83625,8.5125 l 0,-0.002 -0.005,0.002 z m -32.3075,-9.84875 0.002,-0.1725 0.0462,-2.4525 -0.0812,-0.0137 -0.005,0 c -0.35375,-0.0613 -0.71,-0.1 -1.03875,-0.105 -1.20125,-0.0213 -2.345,0.28375 -3.3325,0.82875 l -0.06,0.03 c -0.7575,0.43125 -1.42125,1.01125 -1.95875,1.69625 0.52375,0.7175 1.1925,1.3325 1.95875,1.795 l 0.0625,0.04 c 0.9475,0.55375 2.05625,0.885 3.22375,0.90625 l 0.006,0 c 0.3425,0.002 0.70125,-0.0188 1.04875,-0.0675 l 0.0787,-0.007 0.005,-0.002 0.0463,-2.405 0,-0.0237 -0.002,-0.0163 0,-0.007 0,-0.0225 z m 2.765,-4.24625 0.0375,-0.0375 0.0388,-0.0462 0.002,0 0.0375,-0.0437 0.0412,-0.0425 0.19625,-0.21625 0.04,-0.0425 0.0412,-0.0437 0.0325,-0.0375 0.007,-0.005 0.0413,-0.0438 0.04,-0.04 0.04,-0.0437 0.006,-0.008 0.035,-0.035 0.12125,-0.1275 0.04,-0.04 0.0412,-0.0437 0.0312,-0.0325 0.009,-0.007 0.0425,-0.0412 0.0412,-0.0425 0.04,-0.04 0.002,-0.006 0.38875,-0.375 0.03,-0.03 0.0187,-0.015 0.14875,-0.13875 0.0513,-0.0488 0.0487,-0.045 0.0163,-0.0163 0.0325,-0.0275 0.0512,-0.045 0.0513,-0.0463 0.007,-0.0112 0.0413,-0.035 0.0512,-0.045 0.0513,-0.0463 0,-0.002 0.0475,-0.0412 0.0513,-0.045 0.205,-0.17875 0.0512,-0.0425 0.0513,-0.0437 0.0325,-0.03 0.0188,-0.0125 0.0512,-0.0462 0.055,-0.0437 0.0238,-0.0213 0.0275,-0.0213 0.0512,-0.0437 0.0538,-0.0425 0.0162,-0.0162 0.035,-0.0275 0.0537,-0.0425 0.0513,-0.0413 0.0112,-0.01 0.0425,-0.0325 0.0512,-0.0437 0.0538,-0.04 0.004,-0.006 0.0513,-0.0375 0.0512,-0.0425 0.0513,-0.0375 0.002,-0.004 0.0538,-0.04 0.0538,-0.0437 0.04,-0.0312 0.0137,-0.009 0.0538,-0.04 0.0538,-0.0437 0.0362,-0.0263 0.0188,-0.0138 0.0537,-0.0412 0.0538,-0.04 0.0275,-0.0213 0.0263,-0.0187 0.0562,-0.0413 0.055,-0.0375 0.0188,-0.0163 0.035,-0.0238 0.0563,-0.0412 0.0537,-0.04 0.0138,-0.009 0.0412,-0.0288 0.0563,-0.0412 0.0538,-0.0375 0.005,-0.005 0.0513,-0.035 0.0575,-0.0387 0.0513,-0.0375 0.002,0 0.0563,-0.04 0.0563,-0.0375 0.0462,-0.03 0.0113,-0.009 0.0537,-0.0375 0.0563,-0.0375 0.0387,-0.0238 0.0188,-0.0138 0.0563,-0.0375 c -0.6175,-0.45875 -1.2875,-0.85 -1.99625,-1.1575 -0.8075,-0.35125 -1.67,-0.605 -2.575,-0.7375 l -0.105,5.95 z m 10.22375,7.09 c -1.3975,0 -2.525,-1.13 -2.525,-2.525 0,-1.395 1.1275,-2.525 2.525,-2.525 1.395,0 2.525,1.13 2.525,2.525 0,1.395 -1.13,2.525 -2.525,2.525 z m 8.18375,0 c -1.395,0 -2.52625,-1.13 -2.52625,-2.525 0,-1.395 1.13125,-2.525 2.52625,-2.525 1.395,0 2.525,1.13 2.525,2.525 0,1.395 -1.13,2.525 -2.525,2.525 z m 8.18625,0 c -1.395,0 -2.52625,-1.13 -2.52625,-2.525 0,-1.395 1.13125,-2.525 2.52625,-2.525 1.395,0 2.525,1.13 2.525,2.525 0,1.395 -1.13,2.525 -2.525,2.525 z m -55.345,11.62125 c 0.3025,0.21375 0.375,0.6375 0.1625,0.93875 -0.21375,0.3025 -0.6375,0.375 -0.94,0.1625 -0.8525,-0.59625 -1.55875,-1.37375 -2.0775,-2.25625 -0.515,-0.87625 -0.84625,-1.875 -0.94875,-2.91875 l -0.002,-0.065 -0.004,0 0,-0.002 c 0,-0.3725 0.3025,-0.675 0.675,-0.675 0.36125,0 0.65875,0.28625 0.675,0.645 0.0863,0.83375 0.3525,1.6325 0.76625,2.33625 0.4175,0.7125 0.9975,1.34625 1.69375,1.835 z m -10.67875,-5.7575 c 0.2725,0.25125 0.29125,0.68 0.04,0.9525 -0.25125,0.2725 -0.68,0.29125 -0.9525,0.04 -1.04625,-0.96625 -1.69375,-2.24125 -1.89125,-3.575 -0.19375,-1.3275 0.0512,-2.73625 0.77125,-3.96375 0.18375,-0.3125 0.4025,-0.615 0.6425,-0.895 0.24,-0.28375 0.5125,-0.5425 0.80125,-0.775 0.28875,-0.2325 0.7125,-0.18625 0.945,0.1025 0.23125,0.28875 0.18625,0.7125 -0.1025,0.945 -0.225,0.1775 -0.4375,0.38 -0.61875,0.59625 l -0.005,0.005 c -0.18375,0.21375 -0.35625,0.45125 -0.50125,0.70125 -0.55875,0.9525 -0.75125,2.05125 -0.6,3.09 0.15125,1.0325 0.65625,2.02625 1.47125,2.77625 z m 3.55,-15.19625 c -0.0775,0.36125 -0.44,0.59375 -0.80125,0.515 -0.36125,-0.0775 -0.59375,-0.43875 -0.515,-0.80125 0.3475,-1.61 1.24375,-2.9975 2.46125,-3.98 1.21375,-0.97875 2.76,-1.55875 4.40875,-1.55875 0.42,0 0.84875,0.04 1.275,0.11875 0.41875,0.075 0.8375,0.19625 1.24125,0.35 0.34625,0.1325 0.51625,0.52375 0.38375,0.87 -0.1325,0.345 -0.52375,0.515 -0.86875,0.3825 -0.32125,-0.12375 -0.65875,-0.21875 -0.99875,-0.28 -0.32875,-0.06 -0.6775,-0.0925 -1.0325,-0.0925 -1.33875,0 -2.5875,0.4675 -3.5675,1.2575 -0.98,0.79 -1.705,1.9125 -1.98625,3.21875 z m 18.29875,17.75125 c 0.0788,-0.73625 0.745,-1.27375 1.48125,-1.195 0.7375,0.0775 1.27375,0.74375 1.19625,1.48125 -0.2975,2.77875 -1.625,5.22625 -3.565,6.97125 l -0.0913,0.0762 c -1.935,1.7 -4.47375,2.73 -7.22375,2.73 -3.01375,0 -5.75125,-1.2275 -7.7325,-3.205 l -0.003,-0.002 -0.002,-0.002 -0.035,-0.035 c -0.9125,-0.92 -1.66,-2.0025 -2.19875,-3.1975 -16.21625,7.50875 -29.55625,19.35375 -38.88125,33.775 -4.82125,7.46 -8.57125,15.6175 -11.0975,24.22625 3.8075,-0.2475 7.625,-0.48 11.45375,-0.695 l 3.31125,-0.18125 c 1.17125,-3.21625 2.54375,-6.3375 4.10375,-9.34375 l 0,-0.002 c 3.7475,-7.215 8.5775,-13.78 14.27625,-19.475 l -0.006,-0.006 c 14.27625,-14.2725 34.005,-23.10625 55.7925,-23.10625 21.7875,0 41.51875,8.83375 55.7925,23.10625 l -0.005,0.006 c 5.69875,5.695 10.5275,12.26 14.275,19.475 l 0.0275,0.0538 c 1.55125,2.99 2.91625,6.0925 4.08,9.2925 l 3.28875,0.18125 c 3.83375,0.215 7.6575,0.45 11.47,0.69875 l -0.28875,-0.96875 c -2.66,-8.72125 -6.61,-17.055 -11.75875,-24.7025 -0.41,-0.615 -0.245,-1.45375 0.37,-1.86375 0.615,-0.41 1.45375,-0.245 1.86375,0.37 5.2975,7.8675 9.36,16.44 12.09875,25.41375 l 0.57,1.9375 5.13625,0.35625 c -0.90125,-3.41875 -1.98,-6.77875 -3.2325,-10.075 -4.28625,-11.27875 -10.61375,-21.78875 -18.765,-30.95875 -0.49375,-0.55625 -0.445,-1.40875 0.11,-1.9025 0.55625,-0.49375 1.40875,-0.445 1.9025,0.11 8.37,9.4175 14.87,20.2125 19.27375,31.80125 1.395,3.66625 2.57875,7.42 3.5475,11.23 l 5.1,0.3825 c -0.52125,-2.19125 -1.11,-4.3625 -1.765,-6.51375 -3.095,-10.1425 -7.69,-19.83375 -13.6775,-28.72375 -0.41,-0.615 -0.245,-1.455 0.37,-1.865 0.615,-0.41 1.455,-0.245 1.865,0.37 6.135,9.11125 10.84375,19.04375 14.01625,29.43625 0.75875,2.48 1.4275,4.99 2.01,7.5175 4.53875,0.35875 9.06125,0.745 13.56375,1.14625 -4.765,-24.64125 -16.86125,-46.6725 -33.91875,-63.7325 -22.345,-22.34375 -53.22,-36.16875 -87.32,-36.16875 -34.09875,0 -64.97375,13.825 -87.32,36.16875 -17.0575,17.06 -29.151236,39.09375 -33.916236,63.7325 4.50375,-0.40125 9.0225,-0.79 13.55875,-1.14875 2.841246,-12.3575 7.769986,-24.05125 14.491236,-34.60625 11.02,-17.30625 26.86375,-31.55 46.17875,-40.63125 l 0.34625,-0.3675 c 0.7575,-0.75875 1.645,-1.3875 2.625,-1.85125 l -0.0625,-0.35875 -0.002,0 c -0.0913,-0.56375 -0.1375,-1.1225 -0.1375,-1.65875 0,-2.90375 1.18125,-5.5375 3.08125,-7.43875 l 0.005,-0.006 0.0187,-0.0188 c 1.9,-1.88875 4.5275,-3.0625 7.42,-3.0625 1.4925,0 2.96,0.32625 4.29875,0.9225 1.34375,0.6025 2.56,1.4875 3.55375,2.59875 0.49375,0.55625 0.445,1.40875 -0.11125,1.9025 -0.555,0.49375 -1.40875,0.445 -1.9025,-0.11125 -0.74125,-0.83 -1.6475,-1.49125 -2.635,-1.93375 -0.9875,-0.44 -2.08125,-0.68 -3.20375,-0.68 -2.1575,0 -4.12,0.88 -5.53625,2.29 -1.41125,1.4175 -2.29,3.37875 -2.29,5.5375 0,0.4225 0.0312,0.83625 0.0937,1.2225 0.4725,-0.0738 0.9525,-0.11125 1.44375,-0.11125 0.60125,0 1.2225,0.0625 1.82875,0.18125 0.72875,0.1425 1.20625,0.8525 1.06375,1.58125 -0.14375,0.7275 -0.8525,1.205 -1.58125,1.0625 -0.42375,-0.0838 -0.86875,-0.1275 -1.31125,-0.1275 -0.62875,0 -1.23625,0.09 -1.81375,0.25125 l -0.2025,0.0838 c -0.0775,0.0275 -0.15875,0.0437 -0.23625,0.0537 -0.9475,0.34 -1.8,0.885 -2.49625,1.58125 -1.21375,1.215 -1.97,2.895 -1.97,4.74875 0,1.85125 0.75625,3.535 1.97,4.74875 1.21375,1.215 2.8975,1.97 4.74875,1.97 l 0.1975,-0.002 c -0.0813,-0.53125 -0.11875,-1.07375 -0.11875,-1.625 l 0.007,-0.1425 0.0188,-0.5375 0.009,-0.11 0.0588,-0.6025 c 0.0725,-0.73625 0.73375,-1.27875 1.47125,-1.205 0.73625,0.0725 1.27875,0.73375 1.205,1.47 l -0.0587,0.58875 -0.0163,0.485 0.002,0.0538 c 0,2.2675 0.9175,4.325 2.39375,5.81 l 0.0187,0.0187 0.005,0.005 c 1.48625,1.48625 3.55125,2.4125 5.8275,2.4125 2.08375,0 4.0025,-0.775 5.45625,-2.05375 l 0.0562,-0.0563 c 1.4625,-1.31375 2.46625,-3.165 2.69,-5.25625 z m -22.645,2.80375 c -1.225,-0.4775 -2.32625,-1.20375 -3.2375,-2.11625 -0.35875,-0.35875 -0.69125,-0.74625 -0.9875,-1.16 -15.9875,8.6375 -29.025,21.28375 -38.11125,36.3125 -4.9325,8.15625 -8.705,17.0225 -11.16,26.32875 l 5.13125,-0.35625 c 2.60125,-9.20375 6.56,-17.92125 11.7,-25.8725 8.9525,-13.845 21.49,-25.38 36.665,-33.13625 z m -5.46375,-5.65625 c -0.3425,-0.97625 -0.53125,-2.02625 -0.53125,-3.11875 0,-0.77375 0.0937,-1.53 0.2725,-2.25 -17.36,8.89 -31.65,22.13875 -41.77375,38.03625 -6.405,10.06125 -11.1425,21.1825 -13.93749,32.94125 l 5.09624,-0.3825 c 2.5125,-9.88625 6.4675,-19.29 11.69125,-27.92625 9.33,-15.43375 22.73125,-28.42 39.1825,-37.3 z m 39.12625,-26.91375 c -1.0575,0.55625 -2.11375,1.115 -3.16875,1.6725 0.21125,1.1775 0.41875,2.35375 0.62875,3.53 -0.8575,-0.83125 -1.7125,-1.665 -2.57125,-2.49375 -1.055,0.565 -2.10625,1.12875 -3.15875,1.6925 0.52625,-1.07375 1.0525,-2.15125 1.575,-3.225 -0.8625,-0.825 -1.72125,-1.65375 -2.58125,-2.4825 1.18125,0.17 2.3625,0.3375 3.5475,0.5075 0.51875,-1.07625 1.03875,-2.1475 1.565,-3.22125 0.2025,1.17625 0.41,2.3525 0.615,3.52875 1.17875,0.165 2.36125,0.3275 3.54875,0.49125 z m 25.32125,9.8425 c 0.37,0.02 0.65625,0.3375 0.6375,0.7075 -0.0188,0.37 -0.3375,0.65625 -0.7075,0.63625 -1.59375,-0.08 -3.2075,0.0412 -4.7675,0.3675 -1.5275,0.32125 -3.02125,0.84125 -4.41375,1.55625 -0.33,0.1675 -0.74,0.0388 -0.9075,-0.29125 -0.16625,-0.32875 -0.0375,-0.73875 0.2925,-0.90625 1.49375,-0.76875 3.105,-1.33 4.75375,-1.675 1.6725,-0.35125 3.405,-0.48375 5.1125,-0.395 z m -14.15375,5.18125 c 0.26125,-0.2625 0.69,-0.25875 0.9525,0.002 0.26125,0.26125 0.25875,0.69125 -0.002,0.9525 -0.4,0.39625 -0.7775,0.8125 -1.12,1.2325 -0.34,0.41875 -0.6725,0.875 -0.9825,1.3525 -0.2025,0.31 -0.62,0.39875 -0.93125,0.19625 -0.31,-0.2025 -0.39875,-0.62 -0.19625,-0.93 0.32625,-0.5025 0.6875,-0.99625 1.06875,-1.465 0.39125,-0.48125 0.7975,-0.93125 1.21125,-1.34125 z m -7.4925,10.6275 0.035,-1.95625 c -0.34375,0.035 -0.7025,0.0512 -1.06125,0.0487 l -0.0637,0 -0.006,0 c -1.65875,-0.03 -3.21625,-0.49375 -4.54625,-1.27375 l -0.0937,-0.0512 c -1.37125,-0.825 -2.52125,-2.00375 -3.31125,-3.4025 -0.2725,-0.4175 -0.3,-0.97375 -0.0238,-1.43 0.83375,-1.3775 2.015,-2.53 3.42375,-3.32125 l 0.0675,-0.04 c 1.37625,-0.75875 2.97625,-1.18125 4.67,-1.1525 0.39125,0.006 0.77125,0.035 1.13,0.0838 l 0.0362,-1.95 c -0.66375,-0.235 -1.34375,-0.43 -2.04,-0.5775 l -0.003,0 c -1.055,-0.2275 -2.15125,-0.3625 -3.26,-0.37875 -3.0625,-0.0538 -5.955,0.715 -8.4475,2.09375 -2.46875,1.37125 -4.57125,3.35125 -6.085,5.73625 1.4275,2.43125 3.46,4.485 5.88,5.9425 l 0.03,0.0188 c 2.43625,1.4625 5.285,2.3225 8.33125,2.37625 1.1175,0.0163 2.22125,-0.0725 3.275,-0.26125 l 0.004,0 0,-0.002 c 0.70125,-0.125 1.38875,-0.29375 2.05875,-0.5025 z m 65.30875,139.78375 c -4.91125,-0.21125 -9.84375,-0.39625 -14.7975,-0.55625 -1.15125,2.1775 -2.3825,4.26625 -3.685,6.26 l 3.46125,0 c 0.745,0 1.34875,0.60375 1.34875,1.34875 0,0.745 -0.60375,1.34875 -1.34875,1.34875 l -5.31,0 c -1.88875,2.63125 -3.91,5.07249 -6.04625,7.29874 -0.515,0.535 -1.3675,0.55 -1.9025,0.035 -0.53375,-0.515 -0.55,-1.3675 -0.035,-1.90125 1.61625,-1.68749 3.1675,-3.49999 4.64125,-5.43249 l -14.44625,0 c -0.8875,2.3125 -1.82375,4.47374 -2.81375,6.46749 -0.33,0.66375 -1.13875,0.94 -1.8025,0.61 -0.66375,-0.32875 -0.93875,-1.13875 -0.61,-1.8025 0.815,-1.64249 1.595,-3.40749 2.33875,-5.27499 l -16.86625,0 0,5.68249 c 0,0.745 -0.60375,1.34875 -1.34875,1.34875 -0.745,0 -1.34875,-0.60375 -1.34875,-1.34875 l 0,-5.68249 -16.86625,0 c 0.745,1.8675 1.525,3.6325 2.33875,5.27499 0.33,0.66375 0.055,1.47375 -0.60875,1.8025 -0.66375,0.33 -1.47375,0.0537 -1.8025,-0.61 -0.99,-1.99375 -1.92625,-4.15499 -2.815,-6.46749 l -14.445,0 c 1.4725,1.9325 3.02375,3.745 4.64,5.43249 0.51625,0.53375 0.5,1.38625 -0.035,1.90125 -0.53375,0.515 -1.38625,0.5 -1.90125,-0.035 -2.1375,-2.22625 -4.15875,-4.66749 -6.0475,-7.29874 l -5.31,0 c -0.74375,0 -1.34875,-0.60375 -1.34875,-1.34875 0,-0.745 0.605,-1.34875 1.34875,-1.34875 l 3.4625,0 c -1.30375,-1.99375 -2.53375,-4.0825 -3.68625,-6.26 -4.95375,0.1625 -9.88875,0.345 -14.79625,0.55625 1.675,2.06625 3.45875,4.04125 5.34,5.925 l 0.65,0.6425 0.0163,0.0188 0.64125,0.615 0.07,0.07 0.24125,0.22625 0.24,0.2275 0.1125,0.105 0.13,0.11875 0.2425,0.22375 0.24375,0.22375 0.0588,0.0513 0.18625,0.17 c 0.615,0.55625 1.24125,1.10125 1.875,1.6375 l 0.11625,0.1 0.5075,0.42375 0.08,0.065 1.425,1.14625 0.0375,0.0325 c 0.9475,0.74249 1.91125,1.45999 2.89625,2.16124 l 0.0187,0.0163 c 12.44375,8.845 27.66375,14.04375 44.0925,14.04375 16.42875,0 31.64625,-5.19875 44.09375,-14.04375 l 0.0188,-0.0163 0.5175,-0.37 0.2275,-0.16375 0.0425,-0.03 0.69375,-0.515 0.1025,-0.0763 1.31125,-1.00624 0.0375,-0.0325 0.22125,-0.1725 0.25875,-0.205 0.2375,-0.19125 0.0225,-0.0163 0.25625,-0.2075 0.25625,-0.20875 0.175,-0.145 0.0787,-0.065 0.50625,-0.42375 0.11625,-0.1 c 0.63375,-0.53625 1.2575,-1.08125 1.875,-1.6375 l 0.18625,-0.17 0.06,-0.0513 0.2425,-0.22375 0.2425,-0.22375 0.13,-0.11875 0.11375,-0.105 0.24,-0.2275 0.24,-0.22625 0.07,-0.07 0.6425,-0.615 0.0162,-0.0188 0.65,-0.6425 c 1.88,-1.87875 3.66375,-3.85875 5.34,-5.925 z m -17.80625,-0.65 c -5.71375,-0.17 -11.45625,-0.3075 -17.225,-0.4075 -0.655,2.36 -1.35375,4.61625 -2.10125,6.76125 l 15.4125,0 c 1.38375,-2.01 2.6925,-4.13375 3.91375,-6.35375 z m -20.00125,-0.45375 c -6.65375,-0.1 -13.3425,-0.15875 -20.06625,-0.165 l 0,6.9725 17.88875,0 c 0.775,-2.15 1.50125,-4.4225 2.1775,-6.8075 z m -22.76375,-0.165 c -6.72375,0.009 -13.4125,0.0625 -20.06625,0.165 0.6775,2.385 1.4025,4.6575 2.1775,6.8075 l 17.88875,0 0,-6.9725 z m -22.8425,0.21125 c -5.76875,0.1 -11.51,0.23375 -17.225,0.4075 1.2225,2.22 2.53125,4.34375 3.915,6.35375 l 15.41125,0 c -0.7475,-2.145 -1.44625,-4.40125 -2.10125,-6.76125 z m -20.01,-100.56 c -0.74375,0 -1.34875,-0.605 -1.34875,-1.35 0,-0.74375 0.605,-1.34875 1.34875,-1.34875 l 5.31,0 c 1.89125,-2.63 3.91,-5.0725 6.0475,-7.29875 0.515,-0.53375 1.3675,-0.55 1.90125,-0.035 0.535,0.515 0.55125,1.36875 0.035,1.9025 -1.61875,1.68625 -3.165,3.49875 -4.6375,5.43125 l 14.4425,0 c 0.885,-2.31 1.8275,-4.47125 2.815,-6.4675 0.32875,-0.66375 1.13875,-0.93875 1.8025,-0.61 0.66375,0.33 0.93875,1.13875 0.60875,1.8025 -0.81375,1.64375 -1.59375,3.405 -2.33875,5.275 l 16.86625,0 0,-5.6825 c 0,-0.745 0.60375,-1.34875 1.34875,-1.34875 0.745,0 1.34875,0.60375 1.34875,1.34875 l 0,5.6825 16.86625,0 c -0.74375,-1.87 -1.52375,-3.63125 -2.33875,-5.275 -0.32875,-0.66375 -0.0537,-1.4725 0.61,-1.8025 0.66375,-0.32875 1.4725,-0.0537 1.8025,0.61 0.9875,1.99625 1.92875,4.1575 2.81375,6.4675 l 14.4425,0 c -1.4725,-1.9325 -3.01875,-3.745 -4.6375,-5.43125 -0.515,-0.53375 -0.49875,-1.3875 0.035,-1.9025 0.535,-0.515 1.3875,-0.49875 1.9025,0.035 2.13625,2.22625 4.155,4.66875 6.04625,7.29875 l 5.31,0 c 0.745,0 1.34875,0.605 1.34875,1.34875 0,0.745 -0.60375,1.35 -1.34875,1.35 l -3.45875,0 c 2.965,4.535 5.555,9.57 7.70625,15.00125 l 14.275,0 c 0.745,0 1.35,0.60375 1.35,1.34875 0,0.745 -0.605,1.34875 -1.35,1.34875 l -13.25625,0 0.135,0.375 c 0.875,2.46125 1.6625,4.9975 2.35875,7.60125 6.44875,0.245 12.87,0.53125 19.275,0.86375 -1.0325,-2.715 -2.215,-5.35375 -3.54,-7.90625 l -0.0238,-0.0425 c -3.61875,-6.97 -8.28625,-13.3075 -13.79,-18.81125 l -0.025,-0.0275 -0.40625,-0.4025 -0.21875,-0.2125 -0.6,-0.58 -0.0588,-0.0538 -0.64,-0.6075 -0.0238,-0.0212 -0.1075,-0.1 -1.2475,-1.1275 -0.0213,-0.0225 -0.66625,-0.5825 -0.19125,-0.1675 -0.5025,-0.42625 -0.37,-0.3125 -0.33125,-0.275 -0.1075,-0.09 -1.32,-1.0575 -0.0138,-0.0138 -1.36,-1.04375 -0.0775,-0.0563 -0.38125,-0.28375 -0.355,-0.26125 -0.10625,-0.0788 c -12.5625,-9.13 -28.03,-14.51625 -44.75125,-14.51625 -17.745,0 -34.0775,6.06625 -47.03125,16.24 l -0.0137,0.0138 -1.31875,1.0575 -0.10625,0.09 -1.205,1.01375 -0.1925,0.1675 -0.66625,0.5825 -0.0212,0.0225 c -0.41875,0.37125 -0.83625,0.74375 -1.24625,1.1275 l -0.10875,0.1 -0.0237,0.0212 -0.64,0.6075 -0.0588,0.0538 -0.59875,0.58 -0.21875,0.2125 -0.4075,0.4025 -0.0238,0.0275 c -5.505,5.50375 -10.1725,11.84125 -13.79125,18.81125 -1.3325,2.565 -2.525,5.22125 -3.56375,7.94875 6.405,-0.33 12.83,-0.62125 19.275,-0.86375 0.69625,-2.60375 1.485,-5.14 2.35875,-7.60125 l 0.135,-0.375 -13.25625,0 c -0.745,0 -1.34875,-0.60375 -1.34875,-1.34875 0,-0.745 0.60375,-1.34875 1.34875,-1.34875 l 14.27625,0 c 2.15,-5.43125 4.74,-10.46625 7.70625,-15.00125 l -3.46,0 z m 93.34,25.57 c -0.62,-2.25375 -1.31625,-4.4575 -2.0775,-6.6 l -0.46375,-1.27125 -19.86375,0 0.18,0.9475 c 0.38125,2.06125 0.73375,4.17375 1.0475,6.3325 7.08,0.14625 14.14125,0.34 21.1775,0.59125 z m -23.905,-0.645 c -0.2925,-1.9725 -0.615,-3.90625 -0.96375,-5.7925 l -0.2725,-1.43375 -22.64875,0 0,6.99375 c 7.9875,0.009 15.94875,0.0862 23.885,0.2325 z m -26.5825,-0.2325 0,-6.99375 -22.64875,0 -0.2725,1.43375 c -0.3475,1.88625 -0.67125,3.8175 -0.9625,5.79 7.9375,-0.14625 15.8975,-0.22125 23.88375,-0.23 z m -26.6125,0.28375 c 0.31375,-2.16125 0.6675,-4.27125 1.0475,-6.33 l 0.18125,-0.9475 -19.865,0 -0.46375,1.27125 c -0.76,2.1425 -1.45625,4.34375 -2.0775,6.6 7.0375,-0.25125 14.0975,-0.45125 21.1775,-0.59375 z m 65.46375,-24.97625 -15.415,0 c 1.57875,4.53 2.96,9.56375 4.10625,15.00125 l 19.35125,0 c -2.245,-5.4775 -4.95125,-10.515 -8.0425,-15.00125 z m -18.265,0 -17.88875,0 0,15.00125 22.095,0 c -1.17625,-5.4725 -2.59,-10.50625 -4.20625,-15.00125 z m -20.58625,0 -17.88875,0 c -1.61625,4.495 -3.03,9.52875 -4.20625,15.00125 l 22.095,0 0,-15.00125 z m -20.7375,0 -15.415,0 c -3.0925,4.48625 -5.79875,9.52375 -8.04375,15.00125 l 19.35125,0 c 1.1475,-5.4375 2.52875,-10.47125 4.1075,-15.00125 z m -123.778726,75.79375 -26.19875,7.0225 24.21,14.2525 c 0.68,0.39875 0.9125,1.27 0.52375,1.9525 l -15.5325,27.44374 c -0.39125,0.69 -1.27375,0.93 -1.965,0.53875 -0.69,-0.39125 -0.93,-1.27375 -0.53875,-1.96375 l 14.83375,-26.20999 -25.8675,-15.22625 c -0.35875,-0.1775 -0.64125,-0.50375 -0.7525,-0.92 -0.205,-0.76875 0.25375,-1.56125 1.0225,-1.76625 l 29.49625,-7.90875 -1.58625,-5.7525 -46.54625,12.46875 33.1825,19.54 0.0587,0.0312 c 1.61375,0.915 2.18,2.97125 1.26625,4.585 l -19.025,33.60749 67.63749,-18.1225 -24.45374,-12.65499 -0.0325,-0.0162 -0.0325,-0.0163 -0.0125,-0.005 -0.0488,-0.025 -0.006,-0.002 -0.04,-0.0213 -0.025,-0.0137 -0.0213,-0.01 -0.0425,-0.025 -0.004,-0.002 -0.045,-0.0275 -0.0137,-0.007 -0.0325,-0.0188 -0.03,-0.0187 -0.0125,-0.009 -0.0462,-0.03 -0.002,-0.002 -0.0412,-0.0238 -0.0213,-0.0162 -0.0213,-0.0163 -0.0375,-0.0275 -0.006,-0.003 -0.0425,-0.0325 -0.0112,-0.007 -0.0325,-0.025 -0.0263,-0.0212 -0.0138,-0.01 -0.0437,-0.0362 -0.04,-0.0312 -0.0163,-0.0162 -0.0238,-0.0225 -0.03,-0.0263 -0.0112,-0.009 -0.0375,-0.0375 -0.005,-0.005 -0.035,-0.03 -0.0188,-0.0213 -0.02,-0.0188 -0.0312,-0.035 -0.006,-0.004 -0.0375,-0.04 -0.007,-0.0113 -0.03,-0.0288 -0.0188,-0.025 -0.0163,-0.0163 -0.0737,-0.0838 -0.008,-0.0137 -0.0462,-0.0588 -0.0137,-0.0162 -0.0325,-0.0425 -0.002,0 -0.0325,-0.0462 -0.007,-0.0163 -0.04,-0.0537 -0.004,-0.006 c -0.0725,-0.105 -0.13125,-0.215 -0.19125,-0.32625 l -0.0213,-0.0375 -0.0138,-0.0325 c -0.105,-0.21875 -0.18875,-0.4425 -0.245,-0.66875 l -0.02,-0.0787 -7.88375,-28.58875 z m -4.14625,-15.0325 -0.57,0.15125 0.375,-0.8575 0.195,0.70625 z M 360.87093,571.09827 c 0.45625,-3.92 0.31125,-7.725 -0.42625,-11.375 -1.85875,-9.19 -7.50625,-17.54125 -16.715,-24.3675 -1.00625,-0.69625 -1.5975,-1.92125 -1.42375,-3.21875 1.5425,-11.35375 -0.42375,-21.06125 -5.4775,-28.5575 -5.0625,-7.50625 -13.305,-12.91 -24.31125,-15.6375 -1.1725,-0.2925 -2.155,-1.20875 -2.4625,-2.46375 -2.72875,-11.00625 -8.1325,-19.24875 -15.63875,-24.31 -7.495,-5.05375 -17.20375,-7.02125 -28.5575,-5.4775 l 0,-0.002 c -1.17125,0.15375 -2.39625,-0.31125 -3.14875,-1.3275 -6.84,-9.26625 -15.215,-14.945 -24.43625,-16.81 -9.18,-1.85375 -19.34625,0.0275 -29.83375,5.8575 l -0.0438,0.025 -0.0187,0.01 c -0.9825,0.545 -2.215,0.58625 -3.265,0 -10.50875,-5.8575 -20.6975,-7.75125 -29.8975,-5.8925 -9.19,1.85875 -17.53875,7.50875 -24.365,16.715 -0.69625,1.00625 -1.92125,1.5975 -3.21875,1.425 -11.35375,-1.54375 -21.06375,0.42375 -28.5575,5.47375 -7.50875,5.065 -12.91,13.31 -15.64125,24.31375 -0.29125,1.17375 -1.20875,2.15625 -2.46249,2.46375 -11.006246,2.7275 -19.248736,8.13125 -24.311236,15.6375 -5.0525,7.49625 -7.0175,17.20375 -5.47375,28.5575 l -0.002,0 c 0.15375,1.17125 -0.31125,2.39625 -1.3275,3.14875 -9.26625,6.84 -14.945,15.215 -16.81,24.435 -0.73625,3.6475 -0.885,7.4525 -0.42875,11.37 0.19125,-0.0575 0.38875,-0.0975 0.59375,-0.12125 5.6625,-0.65375 11.35875,-1.27125 17.08125,-1.85125 4.71625,-29.305 18.64499,-55.53125 38.716226,-75.605 25.01125,-25.00875 59.5725,-40.4825 97.7375,-40.4825 38.16875,0 72.72625,15.47375 97.7375,40.4825 20.0725,20.07375 34.0025,46.3 38.71625,75.605 5.72,0.5825 11.41375,1.1975 17.07625,1.85125 l 0,0.005 c 0.17,0.0187 0.34375,0.0537 0.5125,0.1 l 0.0838,0.0238 z m -21.925,66.52 16.65875,-60.4 c -23.50875,-2.63375 -47.46375,-4.66 -71.76875,-6.03375 -24.63125,-1.3925 -49.76375,-2.12375 -75.335,-2.155 l -0.002,0 -0.01,0 -0.006,0 -0.0238,0 -0.0112,0 -0.03,0 -0.0213,0 -0.0325,0 -0.0375,0 -0.03,0 -0.0588,0 -0.0162,0 -0.0863,0 -0.009,0 -0.0888,0 -0.04,0 -0.0437,0 -0.0213,0 -0.0862,0 -0.0275,0 -0.11875,0 -0.0288,0 -0.095,0 -0.105,0 -0.025,0 -0.135,0 -0.0613,0 -0.0763,0 -0.14,0 -0.0325,0 -0.1075,0 -0.14375,0 -0.0238,0 -0.11875,0 -0.1425,0 -0.0112,0 -0.13,0 -0.1125,0 -0.025,0 -0.135,0 -0.0613,0 -0.0675,0 -0.1275,0 -0.002,0 -0.11625,0 -0.0563,0 -0.0562,0 -0.065,0 -0.0275,0 -0.0125,0 -0.0975,0 -0.0187,0 -0.07,0 -0.0387,0 -0.04,0 -0.0463,0 -0.0212,0 -0.0463,0 -0.007,0 -0.0438,0 -0.0287,0 -0.0163,0 c -25.57125,0.0312 -50.715,0.76625 -75.34875,2.155 -24.3025,1.37375 -48.248726,3.3975 -71.754976,6.03375 l 16.65875,60.4 c 21.07749,-2.07125 42.514976,-3.66375 64.234976,-4.7375 22.47,-1.115 45.145,-1.68625 67.9525,-1.68625 22.81,0 45.49375,0.57125 67.97125,1.68625 21.73125,1.07375 43.17375,2.66625 64.24875,4.7375 z m -263.924976,-68.9725 7.695,-0.73125 c 4.76499,-25.48875 17.18999,-48.28375 34.798726,-65.89375 22.83375,-22.8325 54.38375,-36.95625 89.23,-36.95625 34.8475,0 66.39625,14.12375 89.23125,36.95625 17.6075,17.61 30.0325,40.405 34.7975,65.89625 2.56875,0.2375 5.1375,0.4775 7.695,0.72875 -4.74375,-27.845 -18.09875,-52.75625 -37.22875,-71.89 -24.18375,-24.18 -57.5925,-39.13875 -94.495,-39.13875 -36.9,0 -70.31125,14.95875 -94.495,39.13875 -19.132486,19.13625 -32.484976,44.045 -37.228726,71.89 z m 30.802476,73.0175 c -7.406236,0.5525 -14.772486,1.165 -22.094976,1.8375 l 18.601226,9.62374 3.49375,-11.46124 z"
       id="path18" />
  </g>
</svg>
