<svg xmlns="http://www.w3.org/2000/svg" xmlns:xlink="http://www.w3.org/1999/xlink" version="1.1" x="0px" y="0px" width="100px" height="100px" viewBox="0 0 100 100" enable-background="new 0 0 100 100" xml:space="preserve">
<g id="Captions">
</g>
<g id="Your_Icon">
	<g>
		<g>
			<path style="fill:#fff;" d="M73.01,19.998h-7.012v-5.054C65.998,11.107,62.891,8,59.06,8H40.94c-3.831,0-6.938,3.107-6.938,6.944v5.054H26.99     c-3.839,0-6.99,2.704-6.99,6.01c0,3.292,3.151,5.996,6.99,5.996h46.02c3.839,0,6.99-2.704,6.99-5.996     C80,22.702,76.849,19.998,73.01,19.998z M38.164,14.944c0-1.527,1.248-2.777,2.776-2.777H59.06c1.528,0,2.776,1.25,2.776,2.777     v5.054H38.164V14.944z"/>
		</g>
		<g>
			<path style="fill:#fff;" d="M25.996,78.281c0,5.369,4.357,9.723,9.723,9.723h28.562c5.365,0,9.723-4.354,9.723-9.723V36.004H25.996V78.281z      M60.14,41.007h5.674v33.162c0,1.561-1.272,2.834-2.84,2.834c-1.561,0-2.834-1.273-2.834-2.834V41.007z M47.144,41.007h5.666     v33.162c0,1.561-1.272,2.834-2.834,2.834c-1.566,0-2.832-1.273-2.832-2.834V41.007z M34.14,41.007h5.666v33.162     c0,1.561-1.265,2.834-2.826,2.834c-1.566,0-2.84-1.273-2.84-2.834V41.007z"/>
		</g>
	</g>
</g>
</svg>