<svg xmlns="http://www.w3.org/2000/svg" xmlns:xlink="http://www.w3.org/1999/xlink" version="1.1" x="0px" y="0px" width="100px" height="100px" viewBox="0 0 100 100" enable-background="new 0 0 100 100" xml:space="preserve">
<g id="Captions">
</g>
<g id="Your_Icon">
	<g>
		<path fill="#006196" d="M55.172,46.942c-1.736-3.276-19.65-24.202-20.255-23.882c-0.605,0.32,6.653,26.895,8.391,30.172    c1.736,3.275,5.8,4.523,9.075,2.787C55.66,54.283,56.909,50.219,55.172,46.942z"/>
	</g>
	<g>
		<path fill="#006196" d="M78.175,49.636h-5.292c-1.035,0-1.875-0.839-1.875-1.875s0.84-1.875,1.875-1.875h5.292    c1.035,0,1.875,0.839,1.875,1.875S79.21,49.636,78.175,49.636z"/>
	</g>
	<g>
		<path fill="#006196" d="M50,0C22.386,0,0,22.385,0,50c0,27.613,22.386,50,50,50c27.613,0,50-22.387,50-50    C100,22.385,77.613,0,50,0z M50,12.699c20.601,0,37.301,16.699,37.301,37.301c0,2.516-0.253,4.975-0.728,7.35H65.455    c-1.759,5.066-8.001,8.82-15.455,8.82s-13.697-3.754-15.456-8.82H13.426c-0.475-2.375-0.728-4.834-0.728-7.35    C12.698,29.398,29.399,12.699,50,12.699z"/>
	</g>
	<g>
		<path fill="#006196" d="M68.301,39.098c-0.647,0-1.278-0.337-1.625-0.938c-0.518-0.897-0.211-2.043,0.687-2.562l4.583-2.646    c0.896-0.517,2.045-0.211,2.562,0.687c0.518,0.897,0.211,2.043-0.687,2.562l-4.583,2.646    C68.941,39.016,68.619,39.098,68.301,39.098z"/>
	</g>
	<g>
		<path fill="#006196" d="M50,29.875c-1.036,0-1.875-0.839-1.875-1.875v-5.291c0-1.036,0.839-1.875,1.875-1.875    c1.035,0,1.875,0.839,1.875,1.875V28C51.875,29.035,51.035,29.875,50,29.875z"/>
	</g>
	<g>
		<path fill="#006196" d="M60.504,32.546c-0.318,0-0.641-0.081-0.936-0.252c-0.897-0.518-1.204-1.665-0.687-2.561l2.646-4.582    c0.518-0.898,1.666-1.203,2.561-0.686c0.897,0.518,1.204,1.665,0.687,2.561l-2.646,4.582    C61.782,32.21,61.151,32.546,60.504,32.546z"/>
	</g>
	<g>
		<path fill="#006196" d="M26.843,49.933h-5.291c-1.036,0-1.875-0.839-1.875-1.875c0-1.036,0.839-1.875,1.875-1.875h5.291    c1.036,0,1.875,0.839,1.875,1.875C28.718,49.094,27.879,49.933,26.843,49.933z"/>
	</g>
	<g>
		<path fill="#006196" d="M31.425,39.962c-0.317,0-0.64-0.081-0.936-0.251l-4.584-2.646c-0.896-0.518-1.204-1.665-0.687-2.562    c0.519-0.896,1.665-1.204,2.562-0.687l4.584,2.646c0.896,0.519,1.204,1.665,0.687,2.562    C32.704,39.625,32.073,39.962,31.425,39.962z"/>
	</g>
</g>
</svg>